<svg xmlns="http://www.w3.org/2000/svg" viewBox="0 0 397.2 334.06"><defs><style>.cls-1{fill:#61dc36;stroke:#61dc36;}.cls-1,.cls-2,.cls-4,.cls-5{stroke-miterlimit:10;}.cls-2{fill:#31aec5;stroke:#31aec5;}.cls-3,.cls-4{fill:#ff8a00;}.cls-4{stroke:#ff8a00;}.cls-5{fill:#8f00ff;stroke:#8f00ff;}</style></defs><g id="Layer_2" data-name="Layer 2"><g id="Layer_1-2" data-name="Layer 1"><circle class="cls-1" cx="11.85" cy="125.88" r="11.34"/><path class="cls-2" d="M319.92,81.31c-1.36-1.22-5.15-3.69-5.76-4.54-.74-1-2.06-2-2.37-3.73-2.43,5.38-2.17,4.8-12.25,11.37a44.06,44.06,0,0,1-7.92,4.29c-2.37,1.09-5.27,1.33-8.53,1.25-.41,0,1.91,2.06,2.39,2.54A12.17,12.17,0,0,1,287,94.25c1,1.41,2.42,7.27,2.43,5.88,0-5.35,8.84-10.78,11.82-12.82C302.83,86.19,313.79,80.39,319.92,81.31Z"/><path class="cls-2" d="M284.45,115c2.41.09,4.14,1.33,6.11,2.34,1.49.77,3.13,1.87,6.88,4.24,3.14,2,8.22,5.31,10.66,6.64,3.46,1.88,3.86,2.89,4.95,6.12a42,42,0,0,1,1.79-4.79c.8-1.42,3.34-2.76,4.1-3.61-5.57.13-12.17-3-16.13-5.47a107.8,107.8,0,0,1-9.27-6.54c-2-1.56-4.27-3.18-4.73-5.67a11.11,11.11,0,0,1-4.36,6.74Z"/><path class="cls-2" d="M320.73,146.48a.36.36,0,0,0-.32.62c2.32,2.21,2,4,2.17,6.07.11,1.82.27,7.2.19,9.67,0,.9-.3,9.44-.6,12.75-.22,2.5-2.2,6.89-4.2,9.82a52.52,52.52,0,0,1,5.79-1.09c1.63-.06,4,.79,5.14,1-3-5.09-3.29-14.11-3.24-19.17,0-4.62.44-8.47.74-12a12.31,12.31,0,0,1,3.82-8.07,18.74,18.74,0,0,1-5.33.94A27.21,27.21,0,0,1,320.73,146.48Z"/><path class="cls-2" d="M362.2,164.2c-1,2.28-2.89,3.51-4.63,5-1.32,1.16-3,2.35-6.75,5.13-3.12,2.32-6.73,5-9.19,6.84-1.66,1.21-6,5.18-10,5.6.73.62,1.55,2.31,2.36,3.29,1,1.26.53,4.33,1.05,5.35,1.28-5.38,10.83-12.61,14.73-15.56,3.56-2.68,6.91-4.81,9.87-6.62,2.27-1.38,4.71-3,7.26-2.57a10.65,10.65,0,0,1-4.71-6.5Z"/><path class="cls-2" d="M374.17,100.37c1.25,2.32,1.18,4.69,1.41,7.16.18,1.87.16,4.09.25,9.06.08,4.16.79,9.36.29,13.41-.18,1.49-.93,7.68-3,10.68a47.36,47.36,0,0,1,5.36-.94,18.22,18.22,0,0,1,4.34.42c-3.18-5.15-2.95-14-3.08-19.21-.12-4.77.1-9,.35-12.7.19-2.84.31-6,2.13-7.91a9.94,9.94,0,0,1-3.92.85A10.09,10.09,0,0,1,374.17,100.37Z"/><path class="cls-2" d="M273.61,34.86c2.37-1.22,6.17-.49,7.6.06,1.75.67,5,2.41,9.12,4.45,1.43.7,8.89,4.39,11.71,5.76,6.68,3.24,5.53,4.48,6.72,7.62.21-.94,3.4-4.69,3.91-5.86.65-1.49,3.7-5,4.39-6a24.64,24.64,0,0,1-16.53-1.7c-4.3-2.13-14.32-6.46-17.5-8.42a9,9,0,0,1-4.37-5.39c-.06.9-1.05,2.6-1.84,4.14S274.89,33.62,273.61,34.86Z"/><circle class="cls-2" cx="331.9" cy="60.17" r="24.29"/><circle class="cls-2" cx="272.88" cy="102.7" r="17.55"/><circle class="cls-2" cx="262.29" cy="23.19" r="16.07"/><circle class="cls-2" cx="378.3" cy="92.28" r="9.22"/><circle class="cls-2" cx="324.58" cy="136.51" r="11.95"/><circle class="cls-2" cx="323.85" cy="195.81" r="11.94"/><circle class="cls-2" cx="377.95" cy="155.27" r="18.76"/><circle class="cls-3" cx="240.49" cy="222.87" r="9.22"/><circle class="cls-4" cx="271.46" cy="163.14" r="32.02"/><path class="cls-4" d="M247.12,218.12c-.31-2.05.58-3.51,1.22-5.19.49-1.26,1.27-2.65,2.91-5.84,1.37-2.67,2.53-6.28,4.38-8.62.67-.85,3.48-4.42,6.37-5.35-.91-.27-3.93-1.36-5.08-1.89a23.55,23.55,0,0,1-3.71-2.26c1,4.72-2.22,10.21-3.91,13.57a68.13,68.13,0,0,1-4.7,7.87c-1.15,1.71-2.32,3.63-4.61,4a13.62,13.62,0,0,1,7.13,3.69Z"/><path class="cls-4" d="M217,141.56c2.09-.11,3.48.92,5.11,1.72,1.22.61,2.55,1.53,5.61,3.47,2.57,1.63,6.7,4.37,8.71,5.43,2.84,1.51,3.1,2.44,3.78,5.42a50.55,50.55,0,0,1,1.95-4.7c.81-1.41,3.12-2.89,3.84-3.76-4.83.58-10.3-1.87-13.53-3.89a72.21,72.21,0,0,1-7.51-5.46c-1.61-1.31-3.43-2.67-3.63-5a13.38,13.38,0,0,1-4.33,6.76Z"/><circle class="cls-4" cx="204.96" cy="127.99" r="17.55"/><path class="cls-4" d="M200.74,84.46a10.76,10.76,0,0,1,3.89,6.71c.07,1.28-.1,1.87-.3,5.26-.17,2.83-.55,7.46-.5,9.58.07,3-.61,3.65-2.88,5.56A49.41,49.41,0,0,1,206,111c1.63,0,4.05,1.24,5.16,1.44-2.86-3.7-3.39-9.28-3.21-12.84a50,50,0,0,1,.93-7.68c.36-1.92,3.29-5.48,5.23-6.69a33.83,33.83,0,0,1-6.43.84A39.75,39.75,0,0,1,200.74,84.46Z"/><circle class="cls-4" cx="209.33" cy="66.82" r="20.27"/><path class="cls-4" d="M212.24,21c2,2.05,1.16,3.72,1,5.34-.15,1.23-.56,2.63-1.33,5.8-.65,2.66-1.81,7-2.12,9-.44,2.87-2.27,4.47-4.83,5.87.94.07,4.87-1,6.11-.72a49.52,49.52,0,0,1,5.86,2.3,20.17,20.17,0,0,1-2-12.76,57.51,57.51,0,0,1,2.55-8c.68-1.75,2.57-4.54,4.67-5.35-.86,0-3.51.85-5.19.45A21.16,21.16,0,0,1,212.24,21Z"/><circle class="cls-4" cx="218.44" cy="11.85" r="11.34"/><circle class="cls-4" cx="174.5" cy="18.96" r="11.34"/><path class="cls-4" d="M207.49,9c-1.14,2.08-2.85,2-4.32,2.36-1.1.27-2.45.41-5.44.83-2.51.36-6.62.86-8.47,1.26-2.62.57-3.29.15-5.32-1.27a36.69,36.69,0,0,1,1.27,3.8c.24,1.26-.45,3.33-.45,4.22,2.79-2.84,7.59-4.2,10.74-4.67a64.16,64.16,0,0,1,7.71-.62c1.73,0,4.75.46,6.12,1.74-.3-.62-1.85-2.29-2-3.63A14.19,14.19,0,0,1,207.49,9Z"/><path class="cls-4" d="M165.25,24.2c.82,2.56,1.07,8,.09,10.55-.59,1.56-1.15,2.48-2.49,5.76s-3.48,9.12-4.33,11.76c-1.21,3.73-2.28,4.6-6.25,6.26a50.14,50.14,0,0,1,5.6.34,36.94,36.94,0,0,1,5.06,3c-2.55-4.78.29-12.22,1.9-16.59,1.46-4,2.33-5.45,3.69-8.45a18.05,18.05,0,0,1,8.14-8.1c-.65.08-6.15.08-7.26-.35S165.68,24.73,165.25,24.2Z"/><circle class="cls-4" cx="153.17" cy="74.13" r="15.64"/><path class="cls-4" d="M144.6,86.75c1.24,2.16,2.73,5.65,2.6,8.57-.07,1.47-.45,2.11-1.27,5.92-.68,3.18-.83,5.21-1.67,7.48-1.19,3.23-3.93,8.12-7.54,10,.66,0,6.57-1,7.43-.83,1.12.17,6.1,2.53,6.82,2.86-3.31-3.93-3.13-11.52-2.29-15.53a55,55,0,0,1,1.83-6.67,22.25,22.25,0,0,1,7.13-9.48c-.62.15-6.18,1.1-7.34.84A30,30,0,0,1,144.6,86.75Z"/><circle class="cls-4" cx="141.27" cy="150.58" r="32.02"/><path class="cls-4" d="M162.69,174.82A19.48,19.48,0,0,1,173,177c1.62.86,1.94,1.48,6,4.09,3.43,2.19,9,5.83,11.62,7.32,3.77,2.1,4.85,2.59,6.11,6,.3-.9.67-3.12,1.14-4.3.67-1.69,2.09-5.07,2.87-5.9-6.55,1.34-11.73-1.28-16-4-3.94-2.48-7.26-4.94-10.13-7.15-2.2-1.7-3.72-5.51-4.3-8.08-.17.89-2.78,3.91-3.61,5.45A19.26,19.26,0,0,1,162.69,174.82Z"/><circle class="cls-4" cx="207.7" cy="193.1" r="11.31"/><path class="cls-4" d="M202.19,203a11.33,11.33,0,0,1,1.94,6.36c-.07,1.18-.23,1.73-.65,4.86-.35,2.61-1,6.88-1.13,8.85-.22,2.79-.71,3.35-2.33,5a24.63,24.63,0,0,1,3.3-.3c1.05.09,2.5,1.31,3.2,1.54-1.53-3.53-1.39-8.73-1-12a66.11,66.11,0,0,1,1.25-7.08,14.73,14.73,0,0,1,3.94-6,16,16,0,0,1-4.22.53A18.82,18.82,0,0,1,202.19,203Z"/><circle class="cls-4" cx="201.52" cy="237.09" r="9.22"/><path class="cls-4" d="M192.91,240.93a9.75,9.75,0,0,1-2.93,3.19c-.84.74-1.91,1.49-4.28,3.25-2,1.48-4.26,3.2-5.82,4.34-1.06.76-3.81,3.28-6.34,3.55a23.25,23.25,0,0,1,1.5,2.08c.66.8.34,2.75.66,3.39.82-3.41,6.87-8,9.34-9.85a72.17,72.17,0,0,1,6.26-4.2c1.44-.88,3-1.9,4.6-1.63a6.79,6.79,0,0,1-3-4.12Z"/><circle class="cls-4" cx="169.27" cy="260.73" r="7.04"/><circle class="cls-1" cx="131.99" cy="24.08" r="11.34"/><path class="cls-1" d="M120.44,24.81c-.54,2.31-2.2,2.69-3.52,3.44-1,.56-2.25,1.05-5,2.27-2.32,1-6.14,2.6-7.81,3.49-2.38,1.26-3.13,1-5.46.21a36.66,36.66,0,0,1,2.24,3.32c.57,1.15.47,3.33.71,4.19,1.92-3.49,6.17-6.09,9.08-7.4a63.45,63.45,0,0,1,7.25-2.67c1.66-.52,4.71-.85,6.37,0-.46-.51-2.4-1.7-3-2.95A14.3,14.3,0,0,1,120.44,24.81Z"/><circle class="cls-1" cx="80.93" cy="46.15" r="21.33"/><path class="cls-1" d="M73.51,66.93c1.59,1.71,3.67,4.56,4,7.14a21.91,21.91,0,0,1,.16,5.33A40.52,40.52,0,0,1,77,86.27c-.61,3-2.46,7.71-5.69,9.9a33.17,33.17,0,0,1,7.16-1.44,19.34,19.34,0,0,1,7.22,1.09c-3.94-2.95-5.08-9.65-5-13.29a42.25,42.25,0,0,1,.64-6.13A18.86,18.86,0,0,1,86.75,67,42.65,42.65,0,0,1,80,68.39,38.45,38.45,0,0,1,73.51,66.93Z"/><circle class="cls-1" cx="79.03" cy="110.31" r="16.05"/><path class="cls-1" d="M23.19,85c3.55-.82,10.89,3.75,10.89,3.75.63.33,2.38,1.52,6.93,4.3a95.59,95.59,0,0,1,8.81,5.88c3.72,2.84,11.79,8.8,13.16,13.31,0,0-.9-4.88.4-7.57a18.57,18.57,0,0,1,5.24-6.36c-5.81,1.21-18.17-3.67-23-6.57-4.37-2.64-3.66-2-6.92-4.22-2.49-1.72-8.8-5.47-10.08-11.24a16.23,16.23,0,0,1-1.41,4.91A16.74,16.74,0,0,1,23.19,85Z"/><circle class="cls-1" cx="17.31" cy="74.83" r="11.34"/><path class="cls-1" d="M13.29,86c.91,1.75.66,5,.58,6-.11,1.3-.36,2.69-.7,6.15-.28,2.89-.46,7.66-.91,9.77A16.07,16.07,0,0,1,10,114.09a18.76,18.76,0,0,1,2.8-.55,10.2,10.2,0,0,1,2.6,1,43,43,0,0,1-.86-13.07c.31-3.31.72-6.23,1.11-8.78.3-2,1-5.06,2.09-6.47-1,.33-1.87.79-2.4.65A6.65,6.65,0,0,1,13.29,86Z"/><circle class="cls-5" cx="160.99" cy="210.85" r="18.68"/><path class="cls-5" d="M143,217.38c-.3,2.32-1.16,5.73-2.9,7.68a21.49,21.49,0,0,1-4,3.54,40.87,40.87,0,0,1-5.74,3.84c-2.7,1.46-7.49,3.05-11.24,2a33.57,33.57,0,0,1,5.69,4.58c2.78,3.14,3,7.49,3.34,8.19-.24-4.91,4.6-12,7.48-14.26a42.62,42.62,0,0,1,5.12-3.43,18.8,18.8,0,0,1,10.65-1.88,40.89,40.89,0,0,1-5.41-4.35A38.6,38.6,0,0,1,143,217.38Z"/><circle class="cls-5" cx="109.84" cy="250.77" r="18.68"/><path class="cls-5" d="M103.37,268.62c1.64,1.66,3.8,4.44,4.26,7a22,22,0,0,1,.31,5.33,39.82,39.82,0,0,1-.52,6.89c-.52,3-2.23,7.78-5.39,10.06a33,33,0,0,1,7.11-1.65c4.19-.25,7.75,2.27,8.52,2.43-4-2.84-6.63-11.05-6.61-14.69a44.14,44.14,0,0,1,.46-6.15,18.94,18.94,0,0,1,5.1-9.53,42,42,0,0,1-6.76,1.57A39.55,39.55,0,0,1,103.37,268.62Z"/><circle class="cls-5" cx="108.94" cy="314.88" r="18.68"/><path class="cls-5" d="M74.6,225.53c2.24-.11,3.36,1.24,5.36,2.55a18.58,18.58,0,0,1,3.71,3.18A34.08,34.08,0,0,1,87.81,236c1.62,2.31,3.82,7.35,3.69,11.15,0,0,1.06-4.75,3-7a22.47,22.47,0,0,1,6.81-4.88c-4.67,1.06-7.57.8-9.94-1.54-2.17-2.14-6.43-5.41-7-6s-4.09-2.82-3.91-6.94a10.17,10.17,0,0,1-1.72,2.93C77.88,224.67,75.18,225.29,74.6,225.53Z"/><circle class="cls-5" cx="71.44" cy="216.17" r="9.63"/><path class="cls-5" d="M71.92,174.43a32.67,32.67,0,0,1,1.15,8.07,63.08,63.08,0,0,1-.39,7c-.26,3.07-.57,5.34-.93,7.58-.51,3.17-1.37,7-3.07,9.27a15.23,15.23,0,0,1,3.45-.62c2-.1,3.58,1.86,3.94,2.06-1.68-3.15-1.68-11.78-1.35-15.62.29-3.51.5-5.62.84-8.33.26-2.07.94-6.5,2.66-9.55a24,24,0,0,1-2.74,1.13C74.08,175.89,72.17,174.74,71.92,174.43Z"/><circle class="cls-5" cx="74.6" cy="156.7" r="18.7"/><path class="cls-5" d="M55.7,161.49c-.77,2.95-4.43,5.25-5.53,5.93-1.46.89-3.18,1.61-7.1,3.91-3.28,1.92-8.39,5.54-11.06,6.54-3.92,1.48-5.51,1.61-8.82,1.3a52,52,0,0,1,3.75,4.21,29.37,29.37,0,0,1,1.93,5.15c2.71-4.79,8.33-9.76,12.44-12.2,3.74-2.22,7.21-3.94,10.27-5.39,2.34-1.12,6.29-2.57,9-1.85-1.53-1.47-3-2.48-3.4-3.47A18.57,18.57,0,0,1,55.7,161.49Z"/><circle class="cls-5" cx="17.31" cy="189.57" r="11.34"/></g></g></svg>