<svg xmlns="http://www.w3.org/2000/svg" viewBox="0 0 397.75 336.48"><defs><style>.cls-1{fill:#ff1500;}.cls-1,.cls-2{stroke:red;}.cls-1,.cls-2,.cls-6,.cls-7,.cls-8{stroke-miterlimit:10;}.cls-2,.cls-3{fill:red;}.cls-4{fill:#ff0025;}.cls-5,.cls-6{fill:#f3ff00;}.cls-6{stroke:#f3ff00;}.cls-7{fill:#00ffec;stroke:#00ffec;}.cls-8{fill:#8f00ff;stroke:#8f00ff;}</style></defs><g id="Layer_2" data-name="Layer 2"><g id="Layer_1-2" data-name="Layer 1"><path class="cls-1" d="M321,80.81c-1.37-1.22-5.15-3.69-5.77-4.54-.74-1-2.05-2-2.36-3.73-2.44,5.38-2.18,4.8-12.26,11.37a43.94,43.94,0,0,1-7.91,4.29c-2.37,1.09-5.28,1.33-8.54,1.25-.41,0,1.92,2.06,2.4,2.54A12.87,12.87,0,0,1,288,93.75c1,1.41,2.41,7.27,2.42,5.88,0-5.35,8.84-10.78,11.83-12.82C303.87,85.69,314.83,79.89,321,80.81Z"/><path class="cls-2" d="M285.49,114.54c2.42.09,4.14,1.33,6.11,2.34,1.49.77,3.13,1.87,6.88,4.24,3.15,2,8.22,5.31,10.67,6.64,3.46,1.88,3.85,2.89,4.94,6.12a42.13,42.13,0,0,1,1.8-4.79c.8-1.42,3.34-2.76,4.09-3.61-5.57.13-12.17-3-16.13-5.47a107.8,107.8,0,0,1-9.27-6.54c-2-1.56-4.27-3.18-4.73-5.67a11.11,11.11,0,0,1-4.36,6.74Z"/><path class="cls-2" d="M321.78,146a.36.36,0,0,0-.32.62c2.32,2.21,2,4,2.16,6.07.12,1.82.28,7.2.19,9.67,0,.9-.3,9.44-.59,12.75-.23,2.5-2.21,6.89-4.21,9.82a52.72,52.72,0,0,1,5.8-1.09c1.63-.06,4,.79,5.13,1-3-5.09-3.28-14.11-3.24-19.17.05-4.62.44-8.47.74-12a12.41,12.41,0,0,1,3.82-8.07,18.61,18.61,0,0,1-5.33.94A27.09,27.09,0,0,1,321.78,146Z"/><path class="cls-2" d="M363.24,163.7c-1,2.28-2.88,3.51-4.63,5-1.31,1.16-3,2.35-6.74,5.13-3.13,2.32-6.73,5-9.2,6.84-1.66,1.21-6,5.18-10,5.6.73.62,1.55,2.31,2.36,3.29,1,1.26.54,4.33,1,5.35,1.28-5.38,10.83-12.61,14.73-15.56,3.56-2.68,6.91-4.81,9.88-6.62,2.27-1.38,4.7-3,7.25-2.57a10.4,10.4,0,0,1-2.93-2.72A10.53,10.53,0,0,1,363.24,163.7Z"/><path class="cls-2" d="M375.21,99.87c1.25,2.32,1.18,4.69,1.42,7.16.18,1.87.16,4.09.25,9.06.07,4.16.78,9.36.29,13.41-.19,1.49-.94,7.68-3,10.68a47.55,47.55,0,0,1,5.37-.94,18.13,18.13,0,0,1,4.33.42c-3.17-5.15-2.94-14-3.07-19.21-.12-4.77.1-9,.35-12.7.19-2.84.3-6,2.12-7.91a9.94,9.94,0,0,1-3.92.85A10.09,10.09,0,0,1,375.21,99.87Z"/><path class="cls-2" d="M274.65,34.36c2.37-1.22,6.17-.49,7.6.06,1.76.67,5,2.41,9.13,4.45,1.42.7,8.88,4.39,11.7,5.76,6.68,3.24,5.54,4.48,6.72,7.62.21-.94,3.41-4.69,3.91-5.86.66-1.49,3.7-5,4.4-6a24.67,24.67,0,0,1-16.54-1.7c-4.29-2.13-14.32-6.46-17.5-8.42a9,9,0,0,1-4.36-5.39c-.07.9-1.06,2.6-1.85,4.14S275.94,33.12,274.65,34.36Z"/><circle class="cls-3" cx="332.94" cy="59.67" r="24.29"/><circle class="cls-3" cx="273.93" cy="102.2" r="17.55"/><circle class="cls-4" cx="263.33" cy="22.69" r="16.07"/><circle class="cls-3" cx="379.34" cy="91.78" r="9.22"/><circle class="cls-3" cx="325.62" cy="136.01" r="11.95"/><circle class="cls-3" cx="324.89" cy="195.31" r="11.94"/><circle class="cls-4" cx="378.99" cy="154.77" r="18.76"/><circle class="cls-5" cx="240.49" cy="222.49" r="9.22"/><circle class="cls-5" cx="272.5" cy="162.64" r="32.02"/><path class="cls-6" d="M248.16,217.62c-.3-2.05.58-3.51,1.23-5.19.48-1.26,1.26-2.65,2.9-5.84,1.37-2.67,2.54-6.28,4.38-8.62.67-.85,3.48-4.42,6.37-5.35-.9-.27-3.92-1.36-5.08-1.89a24.52,24.52,0,0,1-3.71-2.26c1,4.72-2.21,10.21-3.9,13.57a69.58,69.58,0,0,1-4.7,7.87c-1.15,1.71-2.33,3.63-4.61,4a13.67,13.67,0,0,1,3.76,1.27A13.3,13.3,0,0,1,248.16,217.62Z"/><path class="cls-6" d="M218,141.06c2.08-.11,3.48.92,5.1,1.72,1.23.61,2.56,1.53,5.62,3.47,2.56,1.63,6.69,4.37,8.7,5.43,2.85,1.51,3.1,2.44,3.79,5.42a50.3,50.3,0,0,1,1.94-4.7c.81-1.41,3.12-2.89,3.84-3.76-4.83.58-10.29-1.87-13.53-3.89a71,71,0,0,1-7.5-5.46c-1.61-1.31-3.44-2.67-3.64-5a13.2,13.2,0,0,1-1.6,3.64A13.34,13.34,0,0,1,218,141.06Z"/><circle class="cls-5" cx="206.01" cy="127.49" r="17.55"/><path class="cls-6" d="M201.78,84a10.76,10.76,0,0,1,3.89,6.71c.07,1.28-.09,1.87-.3,5.26-.17,2.83-.55,7.46-.5,9.58.08,3-.61,3.65-2.88,5.56a49.41,49.41,0,0,1,5-.53c1.63,0,4.05,1.24,5.16,1.44-2.86-3.7-3.39-9.28-3.21-12.84a51.25,51.25,0,0,1,.93-7.68c.36-1.92,3.3-5.48,5.23-6.69a33.82,33.82,0,0,1-6.42.84A39.89,39.89,0,0,1,201.78,84Z"/><circle class="cls-5" cx="210.38" cy="66.32" r="20.27"/><path class="cls-6" d="M213.28,20.5c2,2.05,1.16,3.72,1,5.34-.15,1.23-.55,2.63-1.33,5.8-.65,2.66-1.8,7-2.11,9-.45,2.87-2.28,4.47-4.83,5.87.94.07,4.86-1,6.11-.72a50.22,50.22,0,0,1,5.86,2.3,20.12,20.12,0,0,1-2-12.76,57.51,57.51,0,0,1,2.55-8c.68-1.75,2.57-4.54,4.68-5.35-.87,0-3.51.85-5.2.45A21.16,21.16,0,0,1,213.28,20.5Z"/><circle class="cls-5" cx="219.48" cy="11.35" r="11.34"/><circle class="cls-5" cx="175.54" cy="18.46" r="11.34"/><path class="cls-6" d="M208.53,8.54c-1.14,2.08-2.84,2-4.31,2.36-1.11.27-2.45.41-5.45.83-2.51.36-6.61.86-8.47,1.26-2.62.57-3.28.15-5.31-1.27a34.52,34.52,0,0,1,1.26,3.8c.24,1.26-.44,3.33-.44,4.22,2.78-2.84,7.59-4.2,10.73-4.67a64.16,64.16,0,0,1,7.71-.62c1.74,0,4.76.46,6.13,1.74-.31-.62-1.86-2.29-2-3.63A14.57,14.57,0,0,1,208.53,8.54Z"/><path class="cls-6" d="M166.3,23.7c.81,2.56,1.06,8,.08,10.55-.59,1.56-1.15,2.48-2.48,5.76s-3.48,9.12-4.34,11.76c-1.21,3.73-2.27,4.6-6.24,6.26a50,50,0,0,1,5.59.34,36.35,36.35,0,0,1,5.06,3c-2.54-4.78.29-12.22,1.9-16.59,1.47-4,2.33-5.45,3.69-8.45a18.05,18.05,0,0,1,8.14-8.1c-.65.08-6.15.08-7.26-.35S166.72,24.23,166.3,23.7Z"/><circle class="cls-5" cx="154.21" cy="73.63" r="15.64"/><path class="cls-6" d="M145.65,86.25c1.23,2.16,2.72,5.65,2.59,8.57-.07,1.47-.44,2.11-1.26,5.92-.69,3.18-.84,5.21-1.67,7.48-1.2,3.23-3.93,8.12-7.55,10,.67,0,6.57-1,7.44-.83a60.92,60.92,0,0,1,6.81,2.86c-3.3-3.93-3.12-11.52-2.29-15.53A56.87,56.87,0,0,1,151.55,98a22.25,22.25,0,0,1,7.13-9.48c-.62.15-6.18,1.1-7.34.84A29.89,29.89,0,0,1,145.65,86.25Z"/><circle class="cls-5" cx="142.31" cy="150.08" r="32.02"/><path class="cls-6" d="M163.73,174.32a19.52,19.52,0,0,1,10.3,2.15c1.61.86,1.94,1.48,6,4.09,3.43,2.19,9,5.83,11.63,7.32,3.76,2.1,4.84,2.59,6.1,6,.31-.9.67-3.12,1.14-4.3.68-1.69,2.09-5.07,2.87-5.9-6.55,1.34-11.73-1.28-16.05-4-3.94-2.48-7.26-4.94-10.13-7.15-2.2-1.7-3.72-5.51-4.3-8.08-.16.89-2.78,3.91-3.6,5.45A19.29,19.29,0,0,1,163.73,174.32Z"/><circle class="cls-5" cx="208.74" cy="192.6" r="11.31"/><path class="cls-6" d="M203.23,202.52a11.25,11.25,0,0,1,1.94,6.36c-.06,1.18-.22,1.73-.64,4.86-.36,2.61-1,6.88-1.14,8.85-.21,2.79-.71,3.35-2.33,5a24.63,24.63,0,0,1,3.3-.3c1,.09,2.5,1.31,3.2,1.54-1.53-3.53-1.39-8.73-1-12a68.71,68.71,0,0,1,1.25-7.08,14.73,14.73,0,0,1,3.94-6,16,16,0,0,1-4.21.53A18.73,18.73,0,0,1,203.23,202.52Z"/><circle class="cls-5" cx="202.56" cy="236.59" r="9.22"/><path class="cls-6" d="M194,240.43a9.78,9.78,0,0,1-2.94,3.19c-.83.74-1.91,1.49-4.27,3.25-2,1.48-4.27,3.2-5.83,4.34-1,.76-3.8,3.28-6.33,3.55a23.31,23.31,0,0,1,1.49,2.08c.66.8.34,2.75.67,3.39.81-3.41,6.86-8,9.34-9.85a70.64,70.64,0,0,1,6.25-4.2c1.44-.88,3-1.9,4.6-1.63a6.72,6.72,0,0,1-3-4.12Z"/><circle class="cls-5" cx="170.31" cy="260.23" r="7.04"/><circle class="cls-7" cx="11.85" cy="128.3" r="11.34"/><circle class="cls-7" cx="131.99" cy="26.5" r="11.34"/><path class="cls-7" d="M120.44,27.23c-.54,2.31-2.2,2.69-3.52,3.44-1,.56-2.25,1-5,2.27-2.32,1-6.14,2.6-7.81,3.49-2.38,1.26-3.13,1-5.46.21A38.13,38.13,0,0,1,100.87,40c.57,1.15.47,3.33.71,4.19,1.92-3.49,6.17-6.09,9.08-7.39a61.81,61.81,0,0,1,7.25-2.68c1.66-.52,4.71-.84,6.37,0-.46-.51-2.4-1.7-3-3A14.3,14.3,0,0,1,120.44,27.23Z"/><circle class="cls-7" cx="80.93" cy="48.57" r="21.33"/><path class="cls-7" d="M73.51,69.35c1.59,1.71,3.67,4.56,4,7.14a21.91,21.91,0,0,1,.16,5.33A40.52,40.52,0,0,1,77,88.69c-.61,3-2.46,7.71-5.69,9.9a33.17,33.17,0,0,1,7.16-1.44,19.34,19.34,0,0,1,7.22,1.09c-3.94-2.95-5.08-9.65-5-13.29a42.25,42.25,0,0,1,.64-6.13,18.86,18.86,0,0,1,5.37-9.38A42.65,42.65,0,0,1,80,70.81,38.45,38.45,0,0,1,73.51,69.35Z"/><circle class="cls-7" cx="79.03" cy="112.73" r="16.05"/><path class="cls-7" d="M23.19,87.42c3.55-.82,10.89,3.75,10.89,3.75.63.33,2.38,1.52,6.93,4.3a97.67,97.67,0,0,1,8.81,5.88c3.72,2.84,11.79,8.8,13.16,13.31,0,0-.9-4.88.4-7.57a18.57,18.57,0,0,1,5.24-6.36c-5.81,1.21-18.17-3.67-23-6.57-4.37-2.64-3.66-2-6.92-4.22-2.49-1.72-8.8-5.47-10.08-11.24a16.37,16.37,0,0,1-1.41,4.92A16.9,16.9,0,0,1,23.19,87.42Z"/><circle class="cls-7" cx="17.31" cy="77.25" r="11.34"/><path class="cls-7" d="M13.29,88.45c.91,1.75.66,5,.58,6-.11,1.3-.36,2.69-.7,6.15-.28,2.89-.46,7.66-.91,9.77A16.07,16.07,0,0,1,10,116.51a18.76,18.76,0,0,1,2.8-.55,10.2,10.2,0,0,1,2.6,1,43,43,0,0,1-.86-13.07c.31-3.31.72-6.23,1.11-8.78.3-1.95,1-5.06,2.09-6.47-1,.33-1.87.79-2.4.66A6.63,6.63,0,0,1,13.29,88.45Z"/><circle class="cls-8" cx="160.99" cy="213.27" r="18.68"/><path class="cls-8" d="M143,219.8c-.3,2.32-1.16,5.73-2.9,7.68a21.49,21.49,0,0,1-4,3.54,40.87,40.87,0,0,1-5.74,3.84c-2.7,1.46-7.49,3-11.24,2a33.57,33.57,0,0,1,5.69,4.58c2.78,3.14,3,7.49,3.34,8.19-.24-4.91,4.6-12,7.48-14.26a42.62,42.62,0,0,1,5.12-3.43A18.88,18.88,0,0,1,151.42,230a40.89,40.89,0,0,1-5.41-4.35A38.15,38.15,0,0,1,143,219.8Z"/><circle class="cls-8" cx="109.84" cy="253.19" r="18.68"/><path class="cls-8" d="M103.37,271c1.64,1.66,3.8,4.45,4.26,7a21.82,21.82,0,0,1,.31,5.32,39.82,39.82,0,0,1-.52,6.89c-.52,3-2.23,7.78-5.39,10.06a33,33,0,0,1,7.11-1.65c4.19-.25,7.75,2.27,8.52,2.43-4-2.84-6.63-11-6.61-14.69a44.27,44.27,0,0,1,.46-6.15,18.94,18.94,0,0,1,5.1-9.53,42,42,0,0,1-6.76,1.57A39.55,39.55,0,0,1,103.37,271Z"/><circle class="cls-8" cx="108.94" cy="317.3" r="18.68"/><path class="cls-8" d="M74.6,228c2.24-.11,3.36,1.24,5.36,2.55a18.58,18.58,0,0,1,3.71,3.18,34.08,34.08,0,0,1,4.14,4.77c1.62,2.32,3.82,7.35,3.69,11.15,0,0,1.06-4.75,3-7a22.47,22.47,0,0,1,6.81-4.88c-4.67,1.06-7.57.8-9.94-1.54-2.17-2.14-6.43-5.41-7-6s-4.09-2.82-3.91-6.94a10.17,10.17,0,0,1-1.72,2.93C77.88,227.09,75.18,227.71,74.6,228Z"/><circle class="cls-8" cx="71.44" cy="218.59" r="9.63"/><path class="cls-8" d="M71.92,176.85a32.67,32.67,0,0,1,1.15,8.07,63.33,63.33,0,0,1-.39,7c-.26,3.06-.57,5.34-.93,7.57-.51,3.17-1.37,7-3.07,9.28a14.52,14.52,0,0,1,3.45-.63c2-.1,3.58,1.86,3.94,2.06-1.68-3.15-1.68-11.78-1.35-15.62.29-3.51.5-5.62.84-8.33.26-2.07.94-6.5,2.66-9.55a24,24,0,0,1-2.74,1.13C74.08,178.31,72.17,177.16,71.92,176.85Z"/><circle class="cls-8" cx="74.6" cy="159.12" r="18.7"/><path class="cls-8" d="M55.7,163.91c-.77,3-4.43,5.25-5.53,5.93-1.46.89-3.18,1.62-7.1,3.91-3.28,1.92-8.39,5.54-11.06,6.54-3.92,1.48-5.51,1.61-8.82,1.3a52,52,0,0,1,3.75,4.21A29.37,29.37,0,0,1,28.87,191c2.71-4.79,8.33-9.76,12.44-12.2,3.74-2.22,7.21-3.94,10.27-5.39,2.34-1.12,6.29-2.57,9-1.85-1.53-1.47-3-2.48-3.4-3.47A18.57,18.57,0,0,1,55.7,163.91Z"/><circle class="cls-8" cx="17.31" cy="191.99" r="11.34"/></g></g></svg>