<svg width="739" height="543" viewBox="0 0 739 543" fill="none" xmlns="http://www.w3.org/2000/svg">
<g clip-path="url(#clip0_0_1)">
<path d="M145.917 282.417L136.191 179.322L107.191 180.322L130.148 282.129C128.275 283.701 126.926 285.808 126.283 288.167C125.64 290.526 125.732 293.025 126.547 295.33C127.363 297.635 128.862 299.637 130.846 301.067C132.83 302.496 135.203 303.286 137.648 303.331C140.092 303.376 142.493 302.673 144.527 301.316C146.562 299.96 148.134 298.015 149.033 295.741C149.932 293.467 150.115 290.973 149.558 288.592C149.002 286.211 147.731 284.057 145.917 282.417Z" fill="#FFB8B8"/>
<path d="M594.605 257.184H306.338C304.923 257.182 303.566 256.619 302.565 255.618C301.565 254.618 301.002 253.261 301 251.846V5.338C301.002 3.92284 301.565 2.56617 302.565 1.56551C303.566 0.564838 304.923 0.00185213 306.338 0H594.605C596.02 0.00185213 597.377 0.564838 598.377 1.56551C599.378 2.56617 599.941 3.92284 599.943 5.338V251.845C599.941 253.26 599.378 254.617 598.378 255.618C597.377 256.619 596.02 257.181 594.605 257.183V257.184ZM306.338 2.131C305.49 2.13285 304.677 2.47058 304.077 3.0703C303.477 3.67001 303.14 4.48287 303.138 5.33099V251.845C303.14 252.693 303.477 253.506 304.077 254.106C304.677 254.705 305.49 255.043 306.338 255.045H594.605C595.453 255.043 596.266 254.706 596.866 254.106C597.466 253.506 597.803 252.693 597.805 251.845V5.338C597.803 4.48987 597.465 3.67702 596.866 3.0773C596.266 2.47759 595.453 2.13985 594.605 2.138L306.338 2.131Z" fill="#676767"/>
<path d="M351.128 65.093C363.137 65.093 372.873 55.3575 372.873 43.348C372.873 31.3386 363.137 21.603 351.128 21.603C339.119 21.603 329.383 31.3386 329.383 43.348C329.383 55.3575 339.119 65.093 351.128 65.093Z" fill="#FF8A00"/>
<path d="M401.35 28.8511C400.389 28.8511 399.467 29.2329 398.787 29.9125C398.108 30.5922 397.726 31.5139 397.726 32.4751C397.726 33.4362 398.108 34.358 398.787 35.0376C399.467 35.7173 400.389 36.0991 401.35 36.0991H572.206C573.167 36.0991 574.089 35.7173 574.769 35.0376C575.448 34.358 575.83 33.4362 575.83 32.4751C575.83 31.5139 575.448 30.5922 574.769 29.9125C574.089 29.2329 573.167 28.8511 572.206 28.8511H401.35Z" fill="#CCCCCC"/>
<path d="M401.35 50.597C400.389 50.597 399.467 50.9789 398.787 51.6585C398.108 52.3381 397.726 53.2599 397.726 54.221C397.726 55.1822 398.108 56.104 398.787 56.7836C399.467 57.4632 400.389 57.845 401.35 57.845H474.87C475.831 57.845 476.753 57.4632 477.433 56.7836C478.112 56.104 478.494 55.1822 478.494 54.221C478.494 53.2599 478.112 52.3381 477.433 51.6585C476.753 50.9789 475.831 50.597 474.87 50.597H401.35Z" fill="#CCCCCC"/>
<path d="M233.19 521.322H211.19L198.19 338.322L197.69 384.822L149.69 512.822L130.69 497.822L162.19 370.322L147.19 299.322H245.19L233.19 521.322Z" fill="#31AEC5"/>
<path d="M198.19 73.322C212.549 73.322 224.19 61.6814 224.19 47.322C224.19 32.9626 212.549 21.322 198.19 21.322C183.831 21.322 172.19 32.9626 172.19 47.322C172.19 61.6814 183.831 73.322 198.19 73.322Z" fill="#FFB8B8"/>
<path d="M248.191 313.322C205.713 302.422 165.857 295.077 141.191 308.322C145.511 262.911 140.514 204.943 125.691 144.357C120.877 124.678 124.142 106.946 141.691 96.822L165.191 83.322L201.191 84.322L219.974 94.714C229.159 99.3035 236.595 106.765 241.153 115.966C245.711 125.166 247.142 135.603 245.228 145.691C235.135 198.798 240.589 256.116 248.191 313.322Z" fill="#3F3D56"/>
<path d="M151.191 186.322L104.191 183.322C107.863 137.086 118.313 111.811 134.191 103.322L151.191 123.322V186.322Z" fill="#3F3D56"/>
<path d="M659.162 224.205H374.755C373.359 224.203 372.02 223.64 371.032 222.64C370.044 221.639 369.49 220.282 369.488 218.867V92.36C369.49 90.9447 370.044 89.5879 371.032 88.5872C372.02 87.5865 373.359 87.0236 374.755 87.022H659.162C660.558 87.0236 661.896 87.5865 662.884 88.5872C663.871 89.5879 664.426 90.9447 664.428 92.36V218.867C664.426 220.282 663.871 221.639 662.884 222.64C661.896 223.64 660.558 224.203 659.162 224.205Z" fill="#FF8A00" stroke="#FF8A00" stroke-width="4"/>
<path d="M433.532 132.116C432.571 132.116 431.649 132.498 430.97 133.177C430.29 133.857 429.908 134.779 429.908 135.74C429.908 136.701 430.29 137.623 430.97 138.303C431.649 138.982 432.571 139.364 433.532 139.364H604.389C605.35 139.364 606.272 138.982 606.952 138.303C607.631 137.623 608.013 136.701 608.013 135.74C608.013 134.779 607.631 133.857 606.952 133.177C606.272 132.498 605.35 132.116 604.389 132.116H433.532Z" fill="white"/>
<path d="M433.532 153.116C432.571 153.116 431.649 153.498 430.97 154.177C430.29 154.857 429.908 155.779 429.908 156.74C429.908 157.701 430.29 158.623 430.97 159.303C431.649 159.982 432.571 160.364 433.532 160.364H604.389C605.35 160.364 606.272 159.982 606.952 159.303C607.631 158.623 608.013 157.701 608.013 156.74C608.013 155.779 607.631 154.857 606.952 154.177C606.272 153.498 605.35 153.116 604.389 153.116H433.532Z" fill="white"/>
<path d="M433.532 173.862C432.571 173.862 431.649 174.244 430.97 174.924C430.29 175.603 429.908 176.525 429.908 177.486C429.908 178.447 430.29 179.369 430.97 180.049C431.649 180.728 432.571 181.11 433.532 181.11H507.052C508.013 181.11 508.935 180.728 509.615 180.049C510.294 179.369 510.676 178.447 510.676 177.486C510.676 176.525 510.294 175.603 509.615 174.924C508.935 174.244 508.013 173.862 507.052 173.862H433.532Z" fill="white"/>
<path d="M207.055 13.109C204.633 12.855 202.349 14.1439 199.966 14.6709C195.066 15.7449 190.046 13.519 185.008 13.538C180.678 13.7842 176.465 15.0414 172.708 17.209C169.67 18.6449 166.897 20.5861 164.508 22.95C162.106 25.3518 160.707 28.5777 160.596 31.9729C160.929 33.9178 160.869 35.9096 160.42 37.831C159.912 38.7997 159.309 39.7156 158.62 40.565C157.997 41.5658 157.599 42.6903 157.454 43.8604C157.308 45.0305 157.42 46.2182 157.78 47.341C158.79 49.5652 160.155 51.61 161.822 53.395C165.064 57.554 167.095 62.534 170.004 66.948C171.273 68.8639 172.697 70.6729 174.261 72.357C174.517 72.6553 174.829 72.9006 175.179 73.079C175.524 73.2001 175.888 73.2531 176.253 73.235C182.424 73.411 188.81 73.5469 194.492 71.1259C196.312 70.4948 197.858 69.2528 198.866 67.611C199.686 65.3583 199.835 62.9165 199.295 60.581C199.037 57.9798 199.096 55.3568 199.471 52.77C199.497 51.8963 199.854 51.0653 200.471 50.446C200.937 50.1564 201.471 49.9947 202.02 49.9772C202.568 49.9596 203.111 50.0868 203.595 50.346C204.56 50.8543 205.615 51.1724 206.7 51.2829C208.829 51.2829 210.176 48.861 210.606 46.752C210.371 44.8566 210.652 42.9331 211.419 41.1839C212.185 39.4346 213.409 37.9243 214.961 36.812C216.424 34.9554 217.428 32.7802 217.893 30.4627C218.358 28.1453 218.27 25.751 217.636 23.474C216.233 19.085 211.937 13.597 207.055 13.109Z" fill="#2F2E41"/>
<path d="M256.917 278.417L247.191 175.322L218.191 176.322L241.148 278.129C239.275 279.701 237.926 281.808 237.283 284.167C236.64 286.526 236.732 289.025 237.547 291.33C238.363 293.635 239.862 295.637 241.846 297.067C243.83 298.496 246.203 299.286 248.648 299.331C251.092 299.376 253.493 298.673 255.527 297.316C257.562 295.96 259.134 294.015 260.033 291.741C260.932 289.467 261.115 286.973 260.558 284.592C260.002 282.211 258.731 280.057 256.917 278.417Z" fill="#FFB8B8"/>
<path d="M257.19 177.322L213.19 187.322L211.19 115.322L236.19 116.322L257.19 177.322Z" fill="#3F3D56"/>
<path d="M210.494 519.521L242.408 519.52H242.41C247.803 519.52 252.976 521.663 256.791 525.477C260.605 529.291 262.748 534.464 262.748 539.857V540.518L210.495 540.52L210.494 519.521Z" fill="#2F2E41"/>
<path d="M130.338 494.252L157.167 511.536H157.168C161.702 514.458 164.89 519.061 166.031 524.333C167.172 529.605 166.171 535.114 163.25 539.648L162.892 540.204L118.965 511.906L130.338 494.252Z" fill="#2F2E41"/>
<path d="M738.22 540.262H0V545.262H738.22V540.262Z" fill="#676767"/>
</g>
<defs>
<clipPath id="clip0_0_1">
<rect width="739" height="543" fill="white"/>
</clipPath>
</defs>
</svg>
