<?xml version="1.0" encoding="utf-8"?>
<!-- Generator: Adobe Illustrator 26.0.1, SVG Export Plug-In . SVG Version: 6.00 Build 0)  -->
<svg version="1.1" id="Layer_1" xmlns="http://www.w3.org/2000/svg" xmlns:xlink="http://www.w3.org/1999/xlink" x="0px" y="0px"
	 viewBox="0 0 24 24" style="enable-background:new 0 0 24 24;" xml:space="preserve">
<style type="text/css">
	.st0{fill:white;}
</style>
<path class="st0" d="M13.9,12.2l5.6-5.6c0.3-0.3,0.4-0.7,0.4-1c0-0.9-0.7-1.6-1.6-1.6c-0.4,0-0.7,0.1-1,0.4l0,0L11.8,10L6.2,4.5
	C5.9,4.2,5.7,4,5.2,4C4.4,4,3.7,4.8,3.7,5.6c0,0.4,0.1,0.7,0.4,1l0,0l5.6,5.6l-5.6,5.6c-0.3,0.3-0.6,0.7-0.6,1.1
	c0,0.9,0.7,1.6,1.6,1.6c0.4,0,0.9-0.1,1.1-0.6l0,0l5.6-5.6l5.6,5.6c0.3,0.3,0.7,0.6,1.1,0.6c0.9,0,1.6-0.7,1.6-1.6
	c0-0.4-0.1-0.9-0.6-1.1l0,0L13.9,12.2z"/>
</svg>
