<?xml version="1.0" encoding="utf-8"?>
<!-- Generator: Adobe Illustrator 26.0.1, SVG Export Plug-In . SVG Version: 6.00 Build 0)  -->
<svg version="1.1" id="Capa_1" xmlns="http://www.w3.org/2000/svg" xmlns:xlink="http://www.w3.org/1999/xlink" x="0px" y="0px"
	 viewBox="0 0 612 612" style="enable-background:new 0 0 612 612;" xml:space="preserve">
<style type="text/css">
	.st0{fill:#FFFFFF;}
</style>
<g>
	<g>
		<path class="st0" d="M382.2,150.9c9.7,10.9,16.6,24.3,20.4,39.9c3.6,14.8,4.4,31.3,2.4,49c-0.8,6.5-1.9,14-3.5,21.8
			c12.5,12.1,29,19.8,50.3,19.8c59.2,0,80.5-59.3,86.1-108c6.9-60-21.5-105.2-86.1-105.2c-50.7,0-79.1,27.8-85.6,68.8
			C372.1,141.1,377.4,145.7,382.2,150.9z"/>
		<path class="st0" d="M612,422.7c-0.6-18.9-2.9-37.9-6.2-56.5c-4-22.5-9.1-55.6-28.8-70.3c-11.4-8.5-26.1-11.3-39.1-16.4
			c-6.3-2.5-12-5-17.4-7.8c-18,19.7-41.5,30.1-68.8,30.1c-21.3,0-40.2-6.3-56-18.4c-3.6,11.3-8.5,22.6-15,33
			c5.7,3.4,11.9,6.2,19.5,9.2c3.3,1.3,7,2.5,10.9,3.8c10.5,3.4,22.3,7.3,33,15.3c25.3,18.9,31.6,54.3,36.1,80.2l0.5,2.8
			c2.4,13.3,4.1,26.3,5.2,39c20.2-2.1,40.3-5.6,60-9.8c15.9-3.4,31.8-7.5,47.1-13C605.2,439.4,612.5,437.3,612,422.7z"/>
		<path class="st0" d="M160.2,281.5c21.3,0,37.8-7.7,50.3-19.8c-1.6-7.8-2.7-15.3-3.5-21.8c-2-17.7-1.2-34.2,2.4-49
			c3.8-15.6,10.7-29,20.4-39.9c4.7-5.3,10.1-9.9,16-13.8c-6.5-41-34.9-68.8-85.6-68.8c-64.6,0-93,45.2-86.1,105.2
			C79.7,222.2,101,281.5,160.2,281.5z"/>
		<path class="st0" d="M168,344.6c10.7-8,22.5-11.8,33-15.3c3.9-1.3,7.5-2.5,10.9-3.8c7.5-3,13.7-5.7,19.5-9.2
			c-6.5-10.4-11.4-21.7-15-33c-15.8,12.1-34.7,18.4-56,18.4c-27.3,0-50.8-10.3-68.8-30.1c-5.3,2.8-11,5.3-17.4,7.8
			c-13,5.1-27.8,7.9-39.1,16.4c-19.7,14.7-24.8,47.7-28.8,70.3c-3.3,18.6-5.5,37.6-6.2,56.5c-0.5,14.6,6.7,16.7,19,21.1
			c15.3,5.5,31.2,9.6,47.1,13c19.7,4.2,39.8,7.7,60,9.8c1.1-12.7,2.8-25.7,5.2-39l0.5-2.8C136.4,399,142.6,363.5,168,344.6z"/>
		<path class="st0" d="M470.4,429.4l-0.5-2.8c-4.3-24.2-10.1-57.3-32.2-73.8c-9.3-7-19.9-10.4-30.1-13.7c-4-1.3-7.8-2.6-11.4-4
			c-5.3-2.1-10-4.1-14.5-6.3c-18.7,24.9-44.6,38.1-75.4,38.1c-30.8,0-56.7-13.1-75.4-38.1c-4.4,2.2-9.2,4.3-14.5,6.3
			c-3.6,1.4-7.4,2.7-11.4,4c-10.2,3.3-20.8,6.8-30.1,13.7c-22.1,16.5-27.9,49.6-32.2,73.8l-0.5,2.8c-3.6,20.1-5.7,39.6-6.3,57.9
			c-0.7,21.5,12.6,26.3,24.4,30.5l1.3,0.5c14.2,5.1,30,9.5,48.5,13.4c37.6,7.9,68.2,11.7,96.1,11.9h0.1h0.1
			c27.9-0.2,58.5-4,96.1-11.9c18.4-3.9,34.3-8.3,48.5-13.4l1.3-0.5c11.8-4.2,25.1-9,24.4-30.6C476,468.9,473.9,449.4,470.4,429.4z"
			/>
		<path class="st0" d="M221,243c5.6,48.7,26.9,108,86.1,108s80.5-59.3,86.1-108c6.9-60-21.5-105.2-86.1-105.2
			C242.5,137.8,214.1,183,221,243z"/>
	</g>
</g>
</svg>
