<?xml version="1.0" encoding="utf-8"?>
<!-- Generator: Adobe Illustrator 26.0.1, SVG Export Plug-In . SVG Version: 6.00 Build 0)  -->
<svg version="1.1" id="Capa_1" xmlns="http://www.w3.org/2000/svg" xmlns:xlink="http://www.w3.org/1999/xlink" x="0px" y="0px"
	 viewBox="0 0 458.2 458.2" style="enable-background:new 0 0 458.2 458.2;" xml:space="preserve">
<style type="text/css">
	.st0{fill:#FFFFFF;}
</style>
<g>
	<path class="st0" d="M58.7,34.6c-16,0-29.4,13.3-29.4,29.3s13.4,29.3,29.4,29.3s29.4-13.3,29.4-29.3C89.4,47.9,76,34.6,58.7,34.6z"
		/>
	<path class="st0" d="M157.6,98.5h236.6c20,0,34.7-16,34.7-34.6c0-18.7-16-34.6-34.7-34.6H157.6c-20,0-34.7,16-34.7,34.6
		C122.8,83.9,137.5,98.5,157.6,98.5z"/>
	<path class="st0" d="M58.7,143.8c-16,0-29.4,13.3-29.4,29.3s13.4,29.3,29.4,29.3s29.4-13.3,29.4-29.3S76,143.8,58.7,143.8z"/>
	<path class="st0" d="M394.1,138.5H157.6c-20,0-34.7,16-34.7,34.6s16,34.6,34.7,34.6h236.6c20,0,34.7-16,34.7-34.6
		S414.2,138.5,394.1,138.5z"/>
	<path class="st0" d="M58.7,254.4c-16,0-29.4,13.3-29.4,29.3S42.6,313,58.7,313s29.4-13.3,29.4-29.3C89.4,267.7,76,254.4,58.7,254.4
		z"/>
	<path class="st0" d="M394.1,249.1H157.6c-20,0-34.7,16-34.7,34.6c0,18.7,16,34.6,34.7,34.6h236.6c20,0,34.7-16,34.7-34.6
		C430.2,265.1,414.2,249.1,394.1,249.1z"/>
	<path class="st0" d="M58.7,363.7c-16,0-29.4,13.3-29.4,29.3s13.4,29.3,29.4,29.3S88.1,409,88.1,393S76,363.7,58.7,363.7z"/>
	<path class="st0" d="M394.1,359.7H157.6c-20,0-34.7,16-34.7,34.6c0,18.7,16,34.6,34.7,34.6h236.6c20,0,34.7-16,34.7-34.6
		C430.2,374.3,414.2,359.7,394.1,359.7z"/>
</g>
</svg>
