<?xml version="1.0" encoding="utf-8"?>
<!-- Generator: Adobe Illustrator 26.0.1, SVG Export Plug-In . SVG Version: 6.00 Build 0)  -->
<svg version="1.1" id="Capa_1" xmlns="http://www.w3.org/2000/svg" xmlns:xlink="http://www.w3.org/1999/xlink" x="0px" y="0px"
	 viewBox="0 0 31.5 31.5" style="enable-background:new 0 0 31.5 31.5;" xml:space="preserve">
<style type="text/css">
	.st0{fill:#FFFFFF;}
</style>
<g>
	<g>
		<path class="st0" d="M30.2,7V5l-0.3-0.1c-0.1,0-2.4-0.9-5.5-0.9c-3.3,0-6.2,1-8.5,3c-2.3-2-5.2-3-8.5-3C4.2,4,1.9,4.9,1.8,4.9
			L1.5,5v1.8C0.6,7,0,7.4,0,7.9c0,2.7,0,18.9,0,18.9h13.9c0.5,0.4,1.2,0.7,2,0.7c0.8,0,1.5-0.3,2-0.7h13.6c0,0,0-18,0-18.9
			C31.5,7.5,31,7.2,30.2,7z M15.7,25.3c-1.2-0.5-5.1-2-9.1-2c-1.6,0-3,0.2-4.2,0.7V5.7C3.1,5.4,5,4.9,7.3,4.9c3.1,0,5.7,0.9,7.8,2.7
			v11l0.5-0.6L15.7,25.3L15.7,25.3z M29.3,24c-1.3-0.5-2.7-0.8-4.4-0.8c-4,0-7.8,1.5-8.9,2V18l0.5,0.6v-11c2.1-1.8,4.8-2.7,7.8-2.7
			c2.3,0,4.2,0.5,4.9,0.8L29.3,24L29.3,24z"/>
		<path class="st0" d="M23.9,9.9c-0.1-0.2-0.2-0.4-0.4-0.5c-0.1-0.1-0.3-0.1-0.4-0.1c-0.3,0-0.6,0.2-0.7,0.4
			c-0.1,0.1-0.1,0.3-0.1,0.4l-0.9,0.5c-0.1-0.1-0.3-0.2-0.5-0.2s-0.5,0.1-0.6,0.3c-0.1,0.1-0.3,0.3-0.2,0.7c0.1,0.4,0.4,0.6,0.6,0.6
			v1l0,0l0,0c-0.2,0.1-0.4,0.2-0.5,0.4c-0.1,0.1-0.1,0.3-0.1,0.4l-1,0.5c-0.1-0.1-0.3-0.1-0.5-0.1c-0.1,0-0.3,0-0.4,0.1
			c-0.4,0.2-0.5,0.7-0.3,1.1c0.1,0.2,0.3,0.3,0.5,0.4v1c-0.2,0.1-0.3,0.2-0.4,0.4c-0.1,0.2-0.1,0.4-0.1,0.6c0.1,0.2,0.2,0.4,0.4,0.5
			c0.1,0.1,0.3,0.1,0.4,0.1c0.2,0,0.4-0.1,0.5-0.2l0.9,0.5c0,0.1,0,0.2,0,0.3c0.1,0.2,0.2,0.4,0.4,0.5c0.1,0.1,0.3,0.1,0.4,0.1
			c0.3,0,0.6-0.2,0.7-0.4c0.1-0.2,0.1-0.3,0.1-0.5l0.9-0.5c0.1,0.1,0.3,0.2,0.5,0.2l0,0c0.2,0,0.3-0.1,0.5-0.2l1,0.6
			c0,0.1,0,0.2,0,0.3c0.1,0.2,0.2,0.4,0.4,0.5c0.1,0.1,0.3,0.1,0.4,0.1c0.3,0,0.6-0.2,0.7-0.4c0.1-0.2,0.1-0.3,0.1-0.5l0.9-0.5
			c0.1,0.1,0.3,0.2,0.5,0.2l0,0c0.4,0,0.8-0.4,0.8-0.8c0-0.3-0.2-0.6-0.5-0.7v-1.1c0.3-0.1,0.5-0.4,0.5-0.7c0-0.2-0.1-0.4-0.2-0.6
			c-0.2-0.2-0.4-0.2-0.6-0.2s-0.5,0.1-0.6,0.3l-0.9-0.5c0-0.1,0-0.3,0-0.4c0-0.1-0.1-0.3-0.2-0.4l0,0c-0.1-0.1-0.1-0.1-0.2-0.2v-1.1
			c0.3-0.1,0.5-0.4,0.5-0.7c0-0.2-0.1-0.4-0.2-0.6c-0.2-0.2-0.4-0.2-0.6-0.2s-0.5,0.1-0.6,0.3l-0.9-0.5C24,10.2,24,10.1,23.9,9.9z
			 M22.8,10c0.1-0.1,0.2-0.2,0.3-0.2c0.1,0,0.1,0,0.2,0.1s0.1,0.1,0.2,0.2c0,0.1,0,0.2,0,0.3c-0.1,0.2-0.3,0.2-0.5,0.1
			C22.8,10.4,22.7,10.1,22.8,10z M20.5,11.3c0-0.2,0.2-0.4,0.4-0.4l0,0c0.1,0,0.2,0,0.3,0.1c0.1,0.1,0.1,0.2,0.1,0.3
			c0,0.2-0.2,0.4-0.4,0.4l0,0C20.7,11.7,20.5,11.5,20.5,11.3z M20.6,13.7c0.1-0.1,0.2-0.2,0.3-0.2c0.1,0,0.1,0,0.2,0.1
			s0.1,0.1,0.2,0.2c0,0.1,0,0.2,0,0.3c-0.1,0.2-0.3,0.2-0.5,0.1C20.5,14.2,20.5,13.9,20.6,13.7z M18.3,15.4c-0.1-0.2,0-0.4,0.1-0.5
			c0.1,0,0.1-0.1,0.2-0.1s0.3,0.1,0.3,0.2c0.1,0.1,0.1,0.2,0,0.3c0,0.1-0.1,0.2-0.2,0.2C18.7,15.6,18.4,15.5,18.3,15.4z M19,17.9
			c-0.1,0.2-0.3,0.2-0.5,0.1c-0.1-0.1-0.1-0.1-0.2-0.2s0-0.2,0-0.3c0.1-0.1,0.2-0.2,0.3-0.2c0.1,0,0.1,0,0.2,0.1
			C19.1,17.5,19.1,17.7,19,17.9z M21.3,19.2c-0.1,0.2-0.3,0.2-0.5,0.1c-0.1-0.1-0.1-0.1-0.2-0.2c0-0.1,0-0.2,0-0.3
			c0.1-0.1,0.2-0.2,0.3-0.2c0.1,0,0.1,0,0.2,0C21.3,18.8,21.4,19,21.3,19.2z M22.4,17.7c0,0.1,0,0.2,0,0.2l-0.8,0.5
			c-0.1-0.1-0.1-0.1-0.2-0.2s-0.3-0.1-0.4-0.1c-0.3,0-0.5,0.1-0.7,0.4L19.5,18c0.1-0.4,0-0.8-0.4-1c-0.1,0-0.1,0-0.2-0.1v-1
			c0.1,0,0.2-0.1,0.2-0.1c0.2-0.1,0.3-0.3,0.4-0.5c0-0.2,0-0.4-0.1-0.5l0.8-0.5c0.1,0.1,0.2,0.2,0.3,0.3c0.1,0.1,0.3,0.1,0.4,0.1
			c0.2,0,0.4-0.1,0.6-0.2l0.9,0.5v0.1c0,0.4,0.2,0.7,0.6,0.8v1C22.6,17.1,22.4,17.4,22.4,17.7z M22.8,15.2c0-0.2,0.2-0.4,0.4-0.4
			l0,0c0.1,0,0.2,0,0.3,0.1c0.1,0.1,0.1,0.2,0.1,0.3c0,0.2-0.2,0.4-0.4,0.4v0.2v-0.2C23,15.6,22.8,15.4,22.8,15.2z M23.2,18.1v0.2
			V18.1c-0.2,0-0.4-0.2-0.4-0.4c0-0.2,0.2-0.4,0.4-0.4c0.2,0,0.4,0.2,0.4,0.4C23.6,18,23.4,18.1,23.2,18.1z M25.8,19.2
			c-0.1,0.2-0.3,0.2-0.5,0.1c-0.1-0.1-0.1-0.1-0.2-0.2c0-0.1,0-0.2,0-0.3c0.1-0.1,0.2-0.2,0.3-0.2c0.1,0,0.1,0,0.2,0
			C25.9,18.8,25.9,19.1,25.8,19.2z M28.2,17.8c0,0.2-0.2,0.4-0.4,0.4v0.2v-0.2c-0.1,0-0.2,0-0.3-0.1c-0.1-0.1-0.1-0.2-0.1-0.3
			c0-0.2,0.2-0.4,0.4-0.4C28,17.5,28.2,17.6,28.2,17.8z M27.8,14.9c0.1,0,0.2,0,0.3,0.1c0.1,0.1,0.1,0.2,0.1,0.3
			c0,0.2-0.2,0.4-0.4,0.4v0.2v-0.2c-0.2,0-0.4-0.2-0.4-0.4S27.6,14.9,27.8,14.9z M26,14.6l0.9,0.5v0.1c0,0.4,0.3,0.8,0.7,0.8v0.9
			c-0.4,0-0.7,0.4-0.7,0.8c0,0.1,0,0.2,0,0.2l-0.8,0.5c-0.1-0.1-0.1-0.1-0.2-0.2s-0.3-0.1-0.4-0.1c-0.3,0-0.5,0.1-0.7,0.4L24,18.1
			c0-0.1,0.1-0.2,0.1-0.3c0-0.3-0.2-0.6-0.5-0.7V16c0.3-0.1,0.5-0.4,0.5-0.7c0-0.1,0-0.2-0.1-0.3l0.8-0.4c0.1,0.1,0.2,0.2,0.3,0.3
			c0.1,0.1,0.3,0.1,0.4,0.1C25.7,14.8,25.9,14.7,26,14.6z M25.8,13.9c0,0.1,0,0.2,0,0.3c-0.1,0.2-0.3,0.2-0.5,0.1
			c-0.2-0.1-0.2-0.3-0.1-0.5c0.1-0.1,0.2-0.2,0.3-0.2c0.1,0,0.1,0,0.2,0.1C25.7,13.7,25.8,13.8,25.8,13.9z M25.4,11
			c0.1,0,0.2,0,0.3,0.1c0.1,0.1,0.1,0.2,0.1,0.3c0,0.2-0.2,0.4-0.4,0.4l0,0c-0.2,0-0.4-0.2-0.4-0.4C25.1,11.2,25.2,11,25.4,11z
			 M24.6,11.3v0.1c0,0.4,0.3,0.8,0.7,0.8v1l0,0c-0.3,0-0.5,0.2-0.6,0.4c-0.1,0.1-0.1,0.3-0.1,0.4l-0.9,0.5c-0.1-0.1-0.3-0.2-0.5-0.2
			s-0.5,0.1-0.6,0.3l-0.9-0.5c0-0.1,0-0.3,0-0.4c0-0.2-0.2-0.3-0.3-0.4l0,0c0,0-0.1-0.1-0.2-0.1v-1.1c0.3-0.1,0.5-0.4,0.5-0.7
			c0-0.1,0-0.2-0.1-0.3l0.8-0.4c0.1,0.1,0.2,0.2,0.3,0.3c0.1,0.1,0.3,0.1,0.4,0.1c0.2,0,0.4-0.1,0.6-0.2L24.6,11.3z"/>
		<path class="st0" d="M4.4,7.9l0.2,0.7c4.8-1.3,9.1,1.1,9.1,1.1l0.4-0.6C13.9,9,9.5,6.6,4.4,7.9z"/>
		<path class="st0" d="M4.4,10l0.2,0.7c4.8-1.3,9.1,1.1,9.1,1.1l0.4-0.6C13.9,11.1,9.5,8.7,4.4,10z"/>
		<path class="st0" d="M4.4,12l0.2,0.7c4.8-1.3,9.1,1.1,9.1,1.1l0.4-0.6C13.9,13.1,9.5,10.7,4.4,12z"/>
		<path class="st0" d="M4.4,14.2l0.2,0.7c4.8-1.3,9.1,1.1,9.1,1.1l0.4-0.6C13.9,15.2,9.5,12.8,4.4,14.2z"/>
		<path class="st0" d="M4.4,16.2l0.2,0.7c4.8-1.3,9.1,1.1,9.1,1.1l0.4-0.6C13.9,17.3,9.5,14.8,4.4,16.2z"/>
		<path class="st0" d="M4.4,18.2L4.6,19c4.8-1.3,9.1,1.1,9.1,1.1l0.4-0.6C13.9,19.3,9.5,16.9,4.4,18.2z"/>
		<path class="st0" d="M4.4,20.3L4.6,21c4.8-1.3,9.1,1.1,9.1,1.1l0.4-0.6C13.9,21.4,9.5,19,4.4,20.3z"/>
	</g>
</g>
</svg>
