<?xml version="1.0" encoding="utf-8"?>
<!-- Generator: Adobe Illustrator 26.0.1, SVG Export Plug-In . SVG Version: 6.00 Build 0)  -->
<svg version="1.1" id="Layer_1" xmlns="http://www.w3.org/2000/svg" xmlns:xlink="http://www.w3.org/1999/xlink" x="0px" y="0px"
	 viewBox="0 0 512 512" style="enable-background:new 0 0 512 512;" xml:space="preserve">
<style type="text/css">
	.st0{fill:#FFFFFF;}
</style>
<g>
	<g>
		<g>
			<rect x="149.3" y="213.3" class="st0" width="42.7" height="32.7"/>
			<path class="st0" d="M448,21.3h-21.3c0-11.8-9.5-21.3-21.3-21.3C393.5,0,384,9.6,384,21.3H128C128,9.6,118.5,0,106.7,0
				C94.9,0,85.3,9.6,85.3,21.3H64c-35.3,0-64,28.7-64,64v21.3h512V85.3C512,50,483.3,21.3,448,21.3z"/>
			<rect x="149.3" y="362.7" class="st0" width="42.7" height="32.7"/>
			<rect x="320" y="213.3" class="st0" width="42.7" height="42.7"/>
			<path class="st0" d="M0,448c0,35.3,28.7,64,64,64h270.7c-34.5-23-57.4-62.2-57.4-106.7s22.8-83.7,57.4-106.7h-36.1
				c-11.8,0-21.3-9.6-21.3-21.3V192c0-11.8,9.5-21.3,21.3-21.3H384c11.8,0,21.3,9.6,21.3,21.3v85.3c44.5,0,83.7,22.8,106.7,57.4
				V149.3H0V448z M106.7,192c0-11.8,9.5-21.3,21.3-21.3h85.3c11.8,0,21.3,9.6,21.3,21.3v85.3c0,11.8-9.5,21.3-21.3,21.3H128
				c-11.8,0-21.3-9.6-21.3-21.3V192z M106.7,341.3c0-11.8,9.5-21.3,21.3-21.3h85.3c11.8,0,21.3,9.6,21.3,21.3v85.3
				c0,11.8-9.5,21.3-21.3,21.3H128c-11.8,0-21.3-9.6-21.3-21.3V341.3z"/>
			<path class="st0" d="M405.3,320c-47.1,0-85.3,38.3-85.3,85.3s38.3,85.3,85.3,85.3s85.3-38.3,85.3-85.3
				C490.7,358.3,452.4,320,405.3,320z M426.7,426.7h-21.3c-11.8,0-21.3-9.6-21.3-21.3v-42.7c0-11.8,9.5-21.3,21.3-21.3
				s21.3,9.6,21.3,21.3V384c11.8,0,21.3,9.6,21.3,21.3S438.5,426.7,426.7,426.7z"/>
		</g>
	</g>
</g>
</svg>
