<?xml version="1.0" encoding="utf-8"?>
<!-- Generator: Adobe Illustrator 26.0.1, SVG Export Plug-In . SVG Version: 6.00 Build 0)  -->
<svg version="1.1" id="Layer_1" xmlns="http://www.w3.org/2000/svg" xmlns:xlink="http://www.w3.org/1999/xlink" x="0px" y="0px"
	 viewBox="0 0 24 24" style="enable-background:new 0 0 24 24;" xml:space="preserve">
<style type="text/css">
	.st0{fill:#FFFFFF;}
</style>
<path class="st0" d="M8,2h8c3.3,0,6,2.7,6,6v8c0,3.3-2.7,6-6,6H8c-3.3,0-6-2.7-6-6V8C2,4.7,4.7,2,8,2z M14,11c-0.6,0-1,0.4-1,1
	s0.4,1,1,1h3c0.6,0,1-0.4,1-1s-0.4-1-1-1H14z M12,15c-0.6,0-1,0.4-1,1s0.4,1,1,1h5c0.6,0,1-0.4,1-1s-0.4-1-1-1H12z M12,7
	c-0.6,0-1,0.4-1,1s0.4,1,1,1h5c0.6,0,1-0.4,1-1s-0.4-1-1-1H12z M7.8,12.2l-0.7-0.7c-0.4-0.4-1-0.4-1.4,0s-0.4,1,0,1.4l0,0l1.4,1.4
	c0.4,0.4,1,0.4,1.4,0l0,0l2.8-2.8c0.4-0.4,0.4-1,0-1.4s-1-0.4-1.4,0l0,0L7.8,12.2L7.8,12.2z"/>
</svg>
