<svg width="513" height="513" viewBox="0 0 513 513" fill="none" xmlns="http://www.w3.org/2000/svg">
<path d="M277.464 99.904C277.464 45.893 233.524 1.95099 179.512 1.95099C125.5 1.95099 81.561 45.893 81.561 99.904C81.561 153.914 125.501 197.854 179.513 197.854C233.525 197.854 277.464 153.913 277.464 99.904Z" fill="#EFC27B"/>
<path d="M193.571 400.782C187.508 383.685 184.196 365.298 184.196 346.148C184.196 338.201 184.775 330.384 185.874 322.733C187.026 314.731 188.754 306.908 191.024 299.318C191.736 296.934 192.516 294.58 193.333 292.244C195.284 286.657 197.512 281.2 200.034 275.904C201.003 273.868 202.024 271.866 203.075 269.877C207.02 262.406 211.531 255.28 216.542 248.545C204.415 246.001 192.025 244.685 179.514 244.685C80.529 244.684 0 325.213 0 424.196C0 437.127 10.484 447.611 23.415 447.611H219.466C213.675 440.284 208.491 432.454 204 424.196C199.935 416.722 196.448 408.896 193.571 400.782Z" fill="#A4E276"/>
<path d="M81.561 99.903C81.561 153.913 125.501 197.853 179.513 197.853V1.95099C125.501 1.95099 81.561 45.891 81.561 99.903Z" fill="#ECB45C"/>
<path d="M0 424.196C0 437.127 10.484 447.611 23.415 447.611H179.513V244.684C80.529 244.684 0 325.212 0 424.196Z" fill="#64C37D"/>
<path d="M347.9 511.8C438.419 511.8 511.8 438.419 511.8 347.9C511.8 257.381 438.419 184 347.9 184C257.381 184 184 257.381 184 347.9C184 438.419 257.381 511.8 347.9 511.8Z" fill="#26B999"/>
<path d="M348 512C304.504 512 262.79 494.721 232.034 463.966C201.279 433.21 184 391.495 184 348C184 304.504 201.279 262.79 232.034 232.034C262.79 201.279 304.504 184 348 184L348 348L348 512Z" fill="#147661"/>
<path d="M423.997 282.061C417.782 277.745 409.287 279.275 404.985 285.476L328.553 395.289L274.616 351.008C268.797 346.214 260.179 347.075 255.399 352.907C250.604 358.739 251.451 367.344 257.297 372.124L322.666 425.788C325.124 427.795 328.184 428.888 331.325 428.888C331.94 428.888 332.568 428.847 333.196 428.765C336.966 428.232 340.353 426.17 342.539 423.042L427.412 301.087C431.714 294.886 430.184 286.377 423.997 282.061Z" fill="white"/>
</svg>
