<svg width="723" height="494" viewBox="0 0 723 494" fill="none" xmlns="http://www.w3.org/2000/svg">
<g clip-path="url(#clip0_0_1)">
<path d="M538 120.874C538 120.874 534.886 76.3854 518.721 86.4944C502.556 96.6034 525.781 125 525.781 125L538 120.874Z" fill="#FFB9B9"/>
<path d="M627.778 98L616.912 98.9605C616.912 98.9605 606.245 116.036 607.019 119.598C607.794 123.16 609.481 120.997 604.68 126.696C599.879 132.394 586.255 147.124 584.568 149.286C582.881 151.448 536.889 122.494 539.749 113.819C539.749 113.819 525.223 122.418 519 123.562C519 123.562 566.398 174.853 573.003 181.417C579.608 187.981 584.924 186.633 594.002 182.741C603.079 178.849 649 140.029 649 140.029L627.778 98Z" fill="#E88B22"/>
<path d="M80 442.87L86.0248 449L114 429.047L105.108 420L80 442.87Z" fill="#A0616A"/>
<path d="M89.7291 445.623L82.6792 439.5L80.948 438L63 451.266L67.6688 455.829L73.1643 452.57L70.6397 458.732L83.0182 470.828C83.6113 471.408 84.3894 471.798 85.239 471.94C86.0886 472.082 86.9652 471.97 87.7408 471.619C88.5164 471.268 89.1505 470.698 89.5504 469.99C89.9503 469.283 90.0952 468.475 89.9639 467.686L87.2924 451.708L92 447.591L89.7291 445.623Z" fill="#2F2E41"/>
<path d="M215 219.228L213.052 239.273C213.052 239.273 209.653 254.376 212.007 253.152C214.361 251.928 210.14 257.437 211.252 262.215C212.363 266.992 201.758 302.62 206.561 298.929C211.365 295.238 203.785 320.735 198.991 333.314C197.524 337.202 196.015 341.138 194.497 345.045C194.198 345.836 193.898 346.617 193.589 347.408C191.622 352.493 189.654 357.501 187.767 362.228C187.497 362.887 187.237 363.546 186.978 364.196C186.968 364.214 186.968 364.233 186.958 364.233C180.746 379.646 175.423 391.773 173.296 393.779C172.188 394.824 154.602 406.8 136.876 418.795C118.271 431.384 99.5163 444 99.5163 444L82 426.676C82 426.676 82.4193 426.563 83.2084 426.337C84.6664 425.941 87.3629 425.197 90.8981 424.209C105.638 420.113 86.9133 413.739 100.296 409.182C104.07 407.902 106.587 406.904 107.156 406.376C110.481 403.316 114.946 396.02 117.053 399.08C119.16 402.139 128.717 379.402 131.473 377.151C132.951 375.937 137.775 370.259 141.909 365.269C145.464 360.976 148.52 357.181 148.52 357.181C148.52 357.181 148.58 355.148 148.67 351.909C148.8 347.117 148.989 339.669 149.189 332.212C149.179 332.202 149.179 332.202 149.189 332.202C149.259 329.397 149.329 326.591 149.399 323.926C149.449 321.864 149.499 319.878 149.549 318.042C149.678 312.543 149.768 308.382 149.768 307.346C149.768 303.947 149.768 306.593 152.614 304.54C153.039 304.226 153.443 303.886 153.823 303.523C154.431 303.007 154.993 302.443 155.501 301.838C155.71 301.415 154.402 301.989 152.704 301.669C151.785 301.495 150.934 301.084 150.247 300.482C146.672 297.451 150.527 288.13 150.527 288.13C142.398 272.801 142.988 260.232 146.792 250.543C149.637 243.591 154.153 237.355 159.984 232.325C162.204 230.331 164.622 228.543 167.205 226.986L167.455 225.716L170.201 211.696C171.661 210.94 173.18 210.288 174.744 209.747C179.622 208.097 184.856 207.606 189.984 208.316C195.079 209.011 200.013 210.517 204.574 212.77C208.302 214.535 211.801 216.703 215 219.228Z" fill="#2F2E41"/>
<path d="M138 474.216L146.683 475L154 442.156L141.183 441L138 474.216Z" fill="#A0616A"/>
<path d="M163.564 486.503L150.331 476.313L150.931 470.45L147.852 470.358L138.317 470.074H138.307L135.968 470L132 490.528L138.687 491.098L140.456 485.401L142.925 491.466L146.463 491.769L160.626 492.982C160.746 492.991 160.876 493 160.996 493C161.559 493.001 162.116 492.891 162.629 492.679C163.143 492.467 163.601 492.156 163.974 491.769C164.554 491.185 164.909 490.442 164.984 489.655C165.042 489.063 164.944 488.467 164.696 487.918C164.449 487.369 164.061 486.884 163.564 486.503Z" fill="#2F2E41"/>
<path d="M187.272 362.437C183.914 379.87 169.697 420.745 161.098 444.67C157.185 455.602 154.451 463 154.451 463L149.993 461.658H149.983L142.444 459.39L139.699 458.559H139.689L136.361 457.548C136.361 457.548 136.747 438.027 136.787 419.205C136.816 411.315 136.777 403.539 136.619 397.379C136.44 390.661 136.133 385.852 135.628 384.897C133.537 380.985 137.035 380.569 140.73 379.587C144.435 378.595 141.542 377.102 140.105 373.927C139.135 371.81 141.047 368.985 142.404 367.379C142.778 366.927 143.179 366.495 143.603 366.084C143.603 366.084 142.949 365.867 141.78 365.489C145.306 361.181 148.338 357.373 148.338 357.373C148.338 357.373 148.398 355.332 148.487 352.082C148.616 347.272 148.804 339.798 149.002 332.315C148.992 332.305 148.992 332.305 149.002 332.305C149.071 329.49 149.141 326.674 149.21 324C154.877 328.148 160.385 332.211 165.378 335.972C165.384 335.976 165.389 335.982 165.393 335.989C165.396 335.995 165.398 336.002 165.398 336.01C177.395 345.052 186.401 352.309 187.669 354.614C188.243 355.653 188.045 358.431 187.272 362.437Z" fill="#2F2E41"/>
<path d="M721.73 493.998H1C0.734784 493.998 0.480429 493.893 0.292892 493.705C0.105356 493.518 0 493.263 0 492.998C0 492.733 0.105356 492.478 0.292892 492.291C0.480429 492.103 0.734784 491.998 1 491.998H721.73C721.996 491.998 722.25 492.103 722.438 492.291C722.625 492.478 722.73 492.733 722.73 492.998C722.73 493.263 722.625 493.518 722.438 493.705C722.25 493.893 721.996 493.998 721.73 493.998Z" fill="#E6E6E6"/>
<path d="M165 185L166.874 201.441L165.772 223L216.257 217.328L221 185L214.956 185.057L165 185Z" fill="#FFB6B6"/>
<path d="M207.624 131.7L188.812 117.547L178.937 117L164.284 125.945L160.696 143.388L152.211 163.031L164.657 216.039C164.657 216.039 165.824 219.843 162.765 220.3C159.706 220.757 160.073 226.364 160.073 226.364C160.073 226.364 160.696 231.223 157.726 231.651C154.755 232.079 146.835 232.079 153.766 240.571C160.696 249.062 215.514 216.945 215.514 216.945L223.476 177.135C223.476 177.135 238.917 157.371 222.289 146.053L207.624 131.7Z" fill="#A136DB"/>
<path d="M125.029 252.664C124.185 251.667 123.581 250.508 123.262 249.266C122.943 248.025 122.915 246.733 123.181 245.481C123.446 244.228 123.999 243.046 124.8 242.018C125.601 240.989 126.631 240.139 127.817 239.528L151.925 163L167 170.179L140.745 243.53C141.699 245.482 141.863 247.698 141.205 249.756C140.547 251.815 139.114 253.574 137.177 254.7C135.239 255.826 132.933 256.24 130.694 255.865C128.455 255.49 126.439 254.351 125.029 252.664Z" fill="#A0616A"/>
<path d="M167.186 125.214C167.186 125.214 162.948 123.073 160.048 132.338C157.727 139.756 138.892 183.941 138.652 194.683C137.102 194.995 135.705 195.789 134.682 196.939C133.659 198.088 133.067 199.529 133 201.034L156.287 204C160.357 200.738 161.424 196.332 159.85 195.024L164.906 181.898L186 140.136L170.279 126.71L167.186 125.214Z" fill="#A136DB"/>
<path d="M292.763 227.264C293.065 226.04 293.079 224.769 292.802 223.541C292.526 222.312 291.966 221.155 291.162 220.152C290.358 219.148 289.33 218.323 288.15 217.733C286.97 217.144 285.667 216.804 284.333 216.739L229.609 158L218 171.018L274.608 225.487C274.641 227.601 275.497 229.631 277.015 231.191C278.533 232.752 280.608 233.734 282.846 233.954C285.083 234.173 287.329 233.613 289.157 232.38C290.985 231.147 292.268 229.326 292.763 227.264Z" fill="#A0616A"/>
<path d="M196.243 129.949C196.243 129.949 199.109 126.248 205.985 133.464C211.489 139.241 248.823 171.576 253.961 181.235C255.511 180.877 257.142 181.019 258.598 181.64C260.053 182.26 261.25 183.324 262 184.663L242.221 197C237.033 195.722 234.046 192.162 234.876 190.322L224.275 180.493L186 151.293L194.12 132.588L196.243 129.949Z" fill="#A136DB"/>
<path d="M400.827 280.998C478.147 280.998 540.827 218.318 540.827 140.998C540.827 63.6782 478.147 0.998047 400.827 0.998047C323.507 0.998047 260.827 63.6782 260.827 140.998C260.827 218.318 323.507 280.998 400.827 280.998Z" fill="#31AEC5"/>
<path opacity="0.2" d="M394.205 190.548C387.791 196.961 379.093 200.564 370.022 200.564C360.952 200.564 352.254 196.961 345.84 190.548C340.329 185.034 336.866 177.803 336.026 170.053C335.185 162.303 337.017 154.498 341.219 147.931L333.695 155.607C327.281 162.02 323.678 170.719 323.678 179.789C323.678 188.859 327.281 197.558 333.695 203.971C340.108 210.385 348.807 213.988 357.877 213.988C366.947 213.988 375.646 210.385 382.059 203.971L398.733 186.659L398.986 185.583L394.205 190.548Z" fill="black"/>
<path opacity="0.2" d="M410.088 83.5909C417.584 78.4851 426.802 76.5665 435.713 78.257C444.624 79.9475 452.499 85.1088 457.605 92.6053V92.6054C461.992 99.0495 464.046 106.799 463.427 114.57C462.809 122.341 459.554 129.668 454.202 135.337L463.025 129.197C470.521 124.092 475.682 116.217 477.373 107.306C479.064 98.3946 477.145 89.1769 472.039 81.6804V81.6803C466.933 74.1838 459.059 69.0226 450.148 67.3321C441.236 65.6415 432.019 67.5602 424.522 72.6659L404.914 86.5675L404.464 87.5776L410.088 83.5909Z" fill="black"/>
<path d="M357.877 218.267C350.52 218.267 343.328 216.085 337.21 211.998C331.093 207.91 326.325 202.1 323.51 195.303C320.694 188.506 319.957 181.026 321.393 173.811C322.828 166.595 326.371 159.966 331.574 154.764L363.142 122.557C366.595 119.098 370.696 116.353 375.21 114.48C379.725 112.607 384.564 111.642 389.451 111.64C394.339 111.638 399.179 112.599 403.695 114.469C408.211 116.338 412.314 119.079 415.77 122.536C416.332 123.098 416.648 123.861 416.648 124.657C416.648 125.452 416.332 126.215 415.77 126.778C415.207 127.34 414.444 127.656 413.649 127.656C412.853 127.656 412.09 127.34 411.528 126.778C405.677 120.927 397.741 117.64 389.467 117.64C381.192 117.64 373.257 120.927 367.406 126.778C362.769 143.124 352.751 154.34 335.837 158.985C332.935 161.88 330.632 165.319 329.06 169.104C327.487 172.89 326.676 176.948 326.673 181.047C326.669 185.146 327.474 189.205 329.04 192.993C330.606 196.782 332.903 200.224 335.8 203.124C338.697 206.024 342.137 208.324 345.924 209.894C349.71 211.464 353.769 212.272 357.868 212.272C361.967 212.273 366.026 211.466 369.813 209.897C373.6 208.328 377.041 206.028 379.938 203.129C379.255 196.423 381.214 190.119 396.572 185.856C396.845 185.571 397.172 185.343 397.533 185.185C397.894 185.026 398.284 184.94 398.678 184.932C399.073 184.924 399.465 184.994 399.832 185.138C400.2 185.282 400.535 185.497 400.82 185.771C401.104 186.045 401.331 186.372 401.489 186.734C401.646 187.095 401.731 187.485 401.738 187.879C401.745 188.274 401.674 188.666 401.529 189.033C401.384 189.4 401.168 189.735 400.893 190.018L384.22 207.331C380.772 210.807 376.667 213.563 372.145 215.44C367.623 217.318 362.773 218.278 357.877 218.267Z" fill="white"/>
<path d="M409.129 172.704C404.242 172.717 399.4 171.761 394.885 169.891C390.37 168.02 386.271 165.273 382.825 161.808C382.262 161.245 381.946 160.482 381.947 159.687C381.947 158.891 382.263 158.128 382.826 157.565C383.388 157.003 384.151 156.687 384.947 156.687C385.743 156.687 386.506 157.003 387.068 157.566C389.965 160.463 393.404 162.761 397.19 164.329C400.975 165.897 405.032 166.704 409.129 166.704C413.226 166.704 417.283 165.897 421.068 164.329C424.853 162.761 428.293 160.463 431.19 157.566C435.188 133.481 451.488 130.082 465.656 123.1C468.553 120.203 470.851 116.764 472.419 112.978C473.987 109.193 474.794 105.136 474.794 101.039C474.794 96.9416 473.987 92.8846 472.419 89.0994C470.851 85.3141 468.553 81.8747 465.656 78.9777C462.759 76.0806 459.32 73.7824 455.534 72.2146C451.749 70.6467 447.692 69.8397 443.595 69.8397C439.498 69.8398 435.441 70.6468 431.655 72.2147C427.87 73.7826 424.431 76.0808 421.534 78.9779C417.592 90.349 413.723 101.854 401.984 98.5277C401.705 98.8063 401.375 99.0272 401.011 99.178C400.647 99.3287 400.257 99.4063 399.863 99.4063C399.067 99.4063 398.304 99.0903 397.742 98.5278C397.179 97.9652 396.863 97.2022 396.863 96.4066C396.863 95.611 397.179 94.848 397.742 94.2854L417.291 74.7356C420.746 71.2814 424.846 68.5413 429.359 66.6719C433.873 64.8025 438.71 63.8403 443.595 63.8403C448.48 63.8403 453.317 64.8024 457.83 66.6718C462.343 68.5412 466.444 71.2812 469.898 74.7354C473.352 78.1896 476.092 82.2903 477.962 86.8035C479.831 91.3166 480.793 96.1537 480.793 101.039C480.793 105.924 479.831 110.761 477.962 115.274C476.092 119.787 473.352 123.888 469.898 127.342L435.432 161.809C431.986 165.274 427.887 168.021 423.372 169.891C418.857 171.761 414.016 172.717 409.129 172.704Z" fill="white"/>
<path d="M522.464 69.7501C516.585 59.7643 509.509 50.5327 501.394 42.2599C499.584 40.42 497.714 38.6197 495.804 36.8697C494.744 35.9 493.674 34.9498 492.584 34.0196C490.514 32.2398 488.384 30.5196 486.214 28.86C461.701 10.109 431.687 -0.0347962 400.824 8.96824e-05C323.084 8.96824e-05 259.824 63.2501 259.824 141C259.821 149.573 260.6 158.128 262.154 166.56C262.156 166.607 262.163 166.654 262.174 166.7C262.884 170.57 263.764 174.39 264.784 178.14C272.01 204.608 286.801 228.394 307.346 246.58C327.89 264.766 353.295 276.562 380.444 280.523C407.594 284.484 435.31 280.437 460.194 268.878C485.077 257.319 506.048 238.751 520.534 215.45C522.484 212.31 524.317 209.09 526.034 205.79C536.984 184.66 542.4 161.1 541.776 137.31C541.152 113.52 534.507 90.2762 522.464 69.7501ZM400.824 280C382.569 280.006 364.491 276.415 347.624 269.432C330.757 262.449 315.431 252.21 302.522 239.302C289.614 226.393 279.375 211.067 272.392 194.2C265.409 177.333 261.818 159.256 261.824 141C261.824 64.3497 324.184 2.00009 400.824 2.00009C419.371 2.0106 437.728 5.7339 454.813 12.9506C471.898 20.1672 487.366 30.7311 500.304 44.0196C503.679 47.4642 506.863 51.0897 509.844 54.88C512.796 58.5889 515.549 62.4509 518.094 66.4498C528.703 83.1149 535.635 101.851 538.428 121.407C541.222 140.964 539.812 160.891 534.294 179.86C533.064 184.1 531.624 188.25 530.004 192.32C528.374 196.4 526.564 200.4 524.564 204.28C512.868 227.037 495.138 246.139 473.313 259.494C451.489 272.849 426.411 279.943 400.824 280Z" fill="#3F3D56"/>
<path d="M352.184 144.51C353.841 144.51 355.184 143.167 355.184 141.51C355.184 139.853 353.841 138.51 352.184 138.51C350.527 138.51 349.184 139.853 349.184 141.51C349.184 143.167 350.527 144.51 352.184 144.51Z" fill="#31AEC5"/>
<path d="M447.184 142.51C448.841 142.51 450.184 141.167 450.184 139.51C450.184 137.853 448.841 136.51 447.184 136.51C445.527 136.51 444.184 137.853 444.184 139.51C444.184 141.167 445.527 142.51 447.184 142.51Z" fill="#31AEC5"/>
<path d="M161.628 79.0268C159.337 84.4278 152.875 95.0491 152 100.843L152.394 100.476C153.145 101.692 153.999 102.848 154.948 103.933C156.647 102.244 158.699 100.907 160.974 100.01C159.732 102.423 159.012 105.047 158.858 107.727C161.297 114.965 172.571 111.742 179.176 110.952C185.772 118.095 194.548 119.959 206.04 115.852C209.254 116.166 212.853 116.356 215.105 114.558C217.357 112.76 216.016 109.43 217.227 106.911C225.859 88.9712 217.893 82.4985 211.125 74.3639C209.636 72.5738 209.642 69.9023 207.83 68.1943C205.316 65.8269 201.461 65.0986 197.907 64.5153C198.83 64.5614 199.751 64.3817 200.579 63.9935C201.408 63.6053 202.117 63.0217 202.638 62.2989C203.095 61.5707 203.331 60.7371 203.32 59.89C203.309 59.0428 203.05 58.2151 202.574 57.4981C201.303 55.5032 198.662 54.3432 196.114 54.0534C193.604 53.892 191.082 54.0972 188.638 54.6618C187.054 54.859 185.521 55.323 184.111 56.0318C183.445 56.368 182.904 56.8885 182.559 57.5238C182.214 58.1591 182.083 58.8789 182.182 59.5869C182.394 60.2407 182.76 60.8407 183.251 61.3422C183.742 61.8436 184.347 62.2336 185.02 62.4829C186.045 62.8935 187.124 63.1732 188.228 63.3145C183.159 62.6917 178.009 63.545 173.465 65.761C167.769 68.6373 163.926 73.6287 161.628 79.0268Z" fill="#2F2E41"/>
<path d="M192.5 109C203.822 109 213 100.493 213 90C213 79.5066 203.822 71 192.5 71C181.178 71 172 79.5066 172 90C172 100.493 181.178 109 192.5 109Z" fill="#A0616A"/>
<path d="M172.398 79.4656C173.573 82.8265 176.932 83.9094 180.036 84.5849C181.015 84.8008 182 85.0019 182.994 85.1809C183.36 84.7471 183.75 84.3219 184.158 83.9201C185.849 82.2388 187.893 80.9094 190.158 80.0165C189.178 81.913 188.527 83.9462 188.23 86.0382C190.107 86.2958 191.994 86.5064 193.891 86.6698C195.496 86.9931 197.172 86.7205 198.571 85.9083C199.97 85.0962 200.985 83.8064 201.408 82.3058C203.135 84.9785 205.178 87.4956 207.971 88.5573C209.568 89.1003 211.307 89.145 212.933 88.6847C214.559 88.2244 215.986 87.2835 217.006 85.9997C218.616 83.9055 219.733 81.5087 220.28 78.9711C221.073 75.9948 221.513 72.5663 219.957 70.678C218.71 69.1497 216.56 69.1223 214.575 69.2579C210.195 69.5758 205.861 70.3192 201.642 71.4764L201.285 72.2362C202.01 68.1147 200.438 64.1492 197.528 62.7389C195.565 61.7959 193.203 61.9541 190.909 62.1453C187.962 62.2697 185.05 62.8026 182.266 63.7269C179.073 64.8892 176.337 66.9567 174.433 69.6466C172.396 72.5726 171.384 76.563 172.398 79.4656Z" fill="#2F2E41"/>
<path d="M201.812 61.3084C201.601 61.2519 202.149 61.3244 201.959 61.3291C202.053 61.3241 202.147 61.3122 202.239 61.2935C202.255 61.2907 202.468 61.2291 202.326 61.2744C202.645 61.1883 202.928 61.0208 203.144 60.7919C203.647 60.2289 204.042 59.5933 204.311 58.9116C204.652 58.0108 205.199 57.1853 205.917 56.4893C206.121 56.3042 206.37 56.1651 206.644 56.0834C206.919 56.0016 207.21 55.9796 207.496 56.019C207.781 56.0585 208.053 56.1582 208.287 56.3103C208.522 56.4623 208.714 56.6624 208.848 56.8941C209.119 57.7882 209.026 58.7405 208.586 59.5779C208.279 60.4299 207.822 61.2316 207.233 61.952C206.246 63.13 204.901 64.0226 203.362 64.5212C201.582 65.1063 199.64 65.1565 197.825 64.6644C197.586 64.5744 197.38 64.4232 197.233 64.2294C197.087 64.0355 197.006 63.8073 197 63.5725C196.995 63.3377 197.065 63.1065 197.202 62.9071C197.339 62.7076 197.537 62.5485 197.772 62.4492L200.798 61.3284C200.958 61.2649 201.129 61.2305 201.303 61.2271C201.477 61.2237 201.65 61.2513 201.813 61.3083C201.975 61.3654 202.123 61.4508 202.249 61.5597C202.374 61.6686 202.475 61.7989 202.545 61.943C202.615 62.0871 202.653 62.2423 202.657 62.3998C202.661 62.5572 202.631 62.7138 202.567 62.8606C202.504 63.0073 202.41 63.1414 202.29 63.2552C202.169 63.3689 202.025 63.4601 201.866 63.5235L198.839 64.6443L198.786 62.4292C199.164 62.5278 199.552 62.5879 199.945 62.6084C200.363 62.6463 200.786 62.6302 201.199 62.5605C201.596 62.5135 201.985 62.4276 202.36 62.3043C202.601 62.2249 202.837 62.1344 203.067 62.0332C203.151 61.9965 203.234 61.9583 203.316 61.9187C203.31 61.9216 203.663 61.736 203.508 61.8232C203.899 61.5969 204.267 61.3381 204.605 61.0501C204.724 60.9479 204.835 60.8372 204.934 60.7188C205.106 60.5272 205.266 60.3266 205.413 60.1181C205.711 59.6765 205.947 59.2031 206.116 58.7087C206.193 58.5009 206.258 58.2896 206.31 58.0757C206.325 57.9583 206.348 57.842 206.381 57.7274C206.493 57.4546 206.359 57.8868 206.489 58.005L207.046 58.3769C207.151 58.4052 207.262 58.4117 207.37 58.3961C207.477 58.3804 207.58 58.343 207.67 58.2866C207.736 58.2025 207.722 58.2164 207.627 58.3285C207.516 58.4604 207.415 58.5985 207.324 58.742C207.124 59.0797 206.943 59.4265 206.782 59.7808C206.449 60.5345 206.028 61.2538 205.526 61.9266C205.034 62.607 204.318 63.1297 203.478 63.4201C202.639 63.7104 201.72 63.7536 200.852 63.5436C200.526 63.4262 200.264 63.1977 200.123 62.9073C199.982 62.617 199.972 62.288 200.097 61.9914C200.23 61.6991 200.483 61.4647 200.803 61.3374C201.123 61.2101 201.484 61.1997 201.812 61.3084Z" fill="#2F2E41"/>
<path d="M510.236 211.459C510.236 211.459 461.158 219.034 476.283 231.645C491.407 244.256 517.733 221.382 517.733 221.382L510.236 211.459Z" fill="#FFB9B9"/>
<path d="M641.431 108.994C637.183 107.39 632.662 106.901 628.437 107.586C624.211 108.271 620.469 110.1 617.681 112.843L568.559 161.177L523.76 196.062C523.76 196.062 513.715 196.626 514.36 201.008C515.004 205.39 500.905 212.81 500.905 212.81L514.053 227.741C514.053 227.741 524.244 217.767 527.893 219.36C531.1 220.76 614.683 171.297 634.893 159.289C637.679 157.634 639.261 156.69 639.261 156.69C639.261 156.69 664.237 119.939 641.431 108.994Z" fill="#E88B22"/>
<path d="M638.906 440L626.786 457.482C617.4 473.791 625.741 476.754 648.754 468.669L654 448.027L638.906 440Z" fill="#FFB9B9"/>
<path d="M633.216 463.491C633.216 463.491 627.487 455.868 625.415 457.144C623.343 458.42 614.796 463.949 614.796 463.949L603.662 472.664C603.662 472.664 566.049 475.914 589.949 486.685C613.85 497.455 627.058 488.525 627.058 488.525C627.058 488.525 660.534 489.947 659.994 482.315C659.454 474.682 648.658 462.606 648.658 462.606C648.658 462.606 635.051 470.061 633.216 463.491Z" fill="#2F2E41"/>
<path d="M693 239.704L681.704 353.265C681.704 353.265 681.327 421.152 669.278 434.291C657.228 447.43 656.852 454 656.852 454L632 443.363C632 443.363 644.802 425.64 642.167 422.926C640.542 421.206 639.386 419.213 638.778 417.085L645.556 347.008L632.753 225L693 239.704Z" fill="#2F2E41"/>
<path d="M662 440.439L672.404 463L696 454.906L683.552 438L662 440.439Z" fill="#FFB9B9"/>
<path d="M679.664 456.117C679.664 456.117 670.748 451.592 669.633 453.402C668.519 455.212 664.061 462.903 664.061 462.903L659.045 474.213C659.045 474.213 628.396 490.047 654.587 490.952C680.778 491.857 687.465 479.642 687.465 479.642C687.465 479.642 717 469.236 712.542 462.903C708.084 456.569 692.481 450 692.481 450C692.481 450 684.679 461.093 679.664 456.117Z" fill="#2F2E41"/>
<path d="M597.044 240.127L591 344.563C591 344.563 646.156 438.994 652.2 441.496C654.001 442.265 655.598 443.326 656.895 444.615C658.193 445.904 659.166 447.395 659.756 449L693 442.121L677.889 422.109L644.644 355.195C644.644 355.195 639.356 353.319 637.844 347.065C636.333 340.811 633.311 340.811 640.867 339.56C648.422 338.31 648.422 332.056 648.422 332.056L673.356 237L597.044 240.127Z" fill="#2F2E41"/>
<path d="M594.365 55.1152C591.698 41.4841 602.862 28.6407 619.301 26.4287C635.741 24.2166 651.23 33.4736 653.898 47.1047C656.566 60.7359 645.402 73.5793 628.962 75.7913C612.523 78.0033 597.033 68.7463 594.365 55.1152Z" fill="#FFB9B9"/>
<path d="M650.533 53C650.533 53 652.796 84.4073 655.814 87.4864C658.832 90.5656 624.127 89.9497 624.127 89.9497C624.127 89.9497 626.391 63.4691 624.127 61.0058C621.864 58.5425 650.533 53 650.533 53Z" fill="#FFB9B9"/>
<path d="M595 246C595 246 680.175 239.794 696 246C696 246 690.174 228.202 691.68 226.343C692.774 224.982 689.754 174.286 690.702 145.041C691.24 128.54 695.863 112.424 682.423 100.173C677.849 96.0111 672.746 92.5176 667.361 90.811C667.361 90.811 668.866 79.0183 661.33 78.3985C661.33 78.3985 632.681 75.9112 622.134 83.3651C618.762 85.7317 616.641 92.9442 616.416 99.1585C621.635 120.297 619.788 143.753 614.999 168.088C614.705 169.633 614.383 171.187 614.06 172.74C608.978 196.873 601.295 221.754 595 246Z" fill="#E88B22"/>
<path d="M640.211 58.6027C637.649 58.4761 635.148 59.1928 632.604 59.4723C623.502 60.4725 614.033 55.0057 612.024 47.5903C611.863 46.6028 611.507 45.6438 610.971 44.7515C609.57 42.8585 606.38 42.4976 603.75 42.9329C601.12 43.3682 598.627 44.387 595.949 44.5033C591.814 44.6829 587.843 42.5757 585.64 39.6738C583.557 36.6802 582.671 33.2181 583.109 29.7826L585.092 31.5048C585.897 30.0942 586.208 28.5248 585.989 26.9751C587.04 26.7435 588.145 26.7391 589.198 26.9621C590.251 27.1852 591.218 27.6283 592.005 28.2491C593.753 28.4031 592.433 25.5654 593.732 24.5847C594.364 24.2635 595.116 24.1469 595.846 24.2574C599.564 24.2871 602.573 21.9328 605.503 20.0375C610.581 16.761 616.518 14.5193 622.836 13.4935C627.035 12.8156 631.501 12.7067 635.483 14.0009C638.698 15.1954 641.599 16.8989 644.024 19.0155C650.259 23.9778 655.78 29.8082 658.373 36.6381C660.482 42.2323 660.542 48.2181 658.545 53.8403C657.5 56.7601 654.35 66.7596 649.739 66.9925C643.944 67.2851 647.423 58.9588 640.211 58.6027Z" fill="#2F2E41"/>
</g>
<defs>
<clipPath id="clip0_0_1">
<rect width="723" height="494" fill="white"/>
</clipPath>
</defs>
</svg>
